<svg id="logo_greyscale" xmlns="http://www.w3.org/2000/svg" viewBox="0 0 431.33 217.81"><defs><style>.cls-1{fill:#c6c6c5;}.cls-2{fill:#a3a2a2;}</style></defs><title>cognizen_logo_grey</title><path class="cls-1" d="M94.47,36.7h-.07c-.1,0-.47,0-1.32.19-.61.1-1.24.23-1.84.36l-.31.06-1.42.28-.14,0a36.66,36.66,0,0,1-27.24-6.16A36.59,36.59,0,0,1,48.35,13v0l-.22-.71a23.84,23.84,0,0,0-1.74-4.51l0,0,0,0a14,14,0,1,0-19.9,18.81,13.81,13.81,0,0,0,5.14,2.24h.09a24.06,24.06,0,0,0,4.83.1l.75,0h.05A36.85,36.85,0,0,1,74.46,58.91c.09.44.16.94.25,1.57.12.89.39,2.73.61,3.46V64a21.47,21.47,0,0,0,38.22,6.43,21.5,21.5,0,0,0-5.26-29.9A21.25,21.25,0,0,0,94.47,36.7Z" transform="translate(-2 -1)"/><path class="cls-1" d="M115,68.59l0,0,0,0c0-.08.22-.41.57-1.21.24-.57.48-1.16.71-1.73l.11-.3c.2-.52.38-1,.54-1.34l.06-.12a36.64,36.64,0,0,1,20.08-19.42c7.39-3,28.88-9,36.56-7h0l.72.21a23.71,23.71,0,0,0,4.73,1h.08a14,14,0,1,0-4.84-26.95,13.66,13.66,0,0,0-4.68,3.08l0,0,0,0a23.76,23.76,0,0,0-2.73,4l-.38.64v0c-4.17,6.76-23.81,17.43-31.2,20.37a36.61,36.61,0,0,1-27.93-.25c-.41-.16-.86-.38-1.44-.65-.81-.38-2.5-1.17-3.23-1.39h-.07A21.47,21.47,0,0,0,76.37,66.08a21.49,21.49,0,0,0,27.9,12A21.25,21.25,0,0,0,115,68.59Z" transform="translate(-2 -1)"/><path class="cls-1" d="M74.4,58.65v.07c0,.1,0,.47.09,1.33.06.61.14,1.26.22,1.85l0,.32c.07.55.14,1,.17,1.44v.13c.89,9.7-1.07,20.07-8.19,26.71-24.55,22.91-25.58,23.43-33.28,25.37h0l-.73.16a23.45,23.45,0,0,0-4.63,1.4l0,0,0,0a14,14,0,0,0-2.4,23.2,14,14,0,0,0,19.66-2,13.76,13.76,0,0,0,2.62-5l0,0v0a23.13,23.13,0,0,0,.46-4.8c0-.31,0-.57,0-.75v0c.39-7.94-2.67-9.75,22.1-34.52C77.36,86.68,85.37,81.31,95,80.27c.44,0,.94-.09,1.58-.13a35,35,0,0,0,3.5-.35h.07a21.47,21.47,0,0,0,9.27-37.63,21.49,21.49,0,0,0-30.21,3A21.2,21.2,0,0,0,74.4,58.65Z" transform="translate(-2 -1)"/><path class="cls-2" d="M364.86,97.84c-7.53.14-14.29,3.3-20.69,9.7s-9.66,13.84-9.67,22.46,3.09,15.91,9.52,22.34,13.9,9.61,22.71,9.58,16.29-3.23,22.83-9.77l-5.32-4.54a23.13,23.13,0,0,1-17.41,7,25.08,25.08,0,0,1-17.29-7.83c-.18-.18-.33-.36-.5-.55l38.46-38.46c-.66-1.5-4-4.35-5.73-5.3A33.53,33.53,0,0,0,364.86,97.84Zm.4,7.69A23.71,23.71,0,0,1,376,108.25L344.3,139.56a23.48,23.48,0,0,1-2.37-9.71,22.9,22.9,0,0,1,7-17.11C353.71,107.93,359.21,105.51,365.26,105.53Z" transform="translate(-2 -1)"/><path class="cls-2" d="M103.16,98.5c-9.23,0-16.8,3-23.14,9.26a31.82,31.82,0,0,0,0,45,30.43,30.43,0,0,0,22.52,9.33,31.66,31.66,0,0,0,31.84-31.84,30.64,30.64,0,0,0-9.23-22.45A29.47,29.47,0,0,0,103.16,98.5Zm16.53,49.24a23.67,23.67,0,0,1-34.32,0,25.33,25.33,0,0,1,0-34.87,23.7,23.7,0,0,1,34.37,0,25.51,25.51,0,0,1,0,34.9Z" transform="translate(-2 -1)"/><path class="cls-2" d="M171,98.5c-9.23,0-16.8,3-23.14,9.26a31.81,31.81,0,0,0,0,45,32,32,0,0,0,45.08.06,32,32,0,0,0,0-45A29.46,29.46,0,0,0,171,98.5Zm16.53,49.24a23.66,23.66,0,0,1-34.32,0,25.32,25.32,0,0,1,0-34.87,23.7,23.7,0,0,1,34.37,0,25.5,25.5,0,0,1,0,34.9Z" transform="translate(-2 -1)"/><path class="cls-2" d="M268.15,107.48H306c12.51,0,17,2.7,17,9.35,0,6.21-3.77,9.07-14.11,9.48-.91,0-1.84.07-2.84.07H290.59c-7.57.29-14.23,1.89-17.66,5.51a20.54,20.54,0,0,0-2.37,2.94c-1.55,2.35-2.4,5.05-2.4,9.39,0,6.68,2.42,9.53,5.45,13,3.58,4.07,11.14,4.94,18.79,4.94h38.73v-8.45H293.3c-12.52,0-17-2.7-17-9.36,0-6.21,3.78-9.07,14.11-9.48.91,0,1.84-.07,2.85-.07h15.39c7.57-.3,14.23-1.89,17.67-5.51a21.16,21.16,0,0,0,2.37-2.94c1.55-2.35,2.4-5.05,2.4-9.39,0-6.69-2.42-9.53-5.45-13C322.09,99.91,314.53,99,306.88,99H268.15Z" transform="translate(-2 -1)"/><rect class="cls-2" x="252.8" y="98.1" width="8.04" height="63.35"/><path class="cls-2" d="M228.14,98.65c-6.67,0-11.76,1.85-15.55,5.65S207,113.22,207,120V162.4h7.42V120.75c0-11,6.83-14.9,12.68-14.9s12.85,3.9,12.85,14.9V162.4h7.42V120.75c0-7.62-1.66-13.32-4.94-17C239.29,100.33,234.62,98.65,228.14,98.65Z" transform="translate(-2 -1)"/><path class="cls-2" d="M414.14,98.65c-6.68,0-11.76,1.85-15.55,5.65S393,113.22,393,120V162.4h7.42V120.75c0-11,6.83-14.9,12.69-14.9s12.85,3.9,12.85,14.9V162.4h7.42V120.75c0-7.62-1.66-13.32-4.94-17C425.28,100.33,420.62,98.65,414.14,98.65Z" transform="translate(-2 -1)"/><path class="cls-2" d="M192.92,164.5A29.48,29.48,0,0,0,171,155.17l-.66,0v6.94a23.28,23.28,0,0,1,17.2,7.37,25.5,25.5,0,0,1,0,34.91,23.66,23.66,0,0,1-34.32,0,24.36,24.36,0,0,1-7-17.41h-7.74a31.85,31.85,0,0,0,31.84,31.82A31.67,31.67,0,0,0,202.15,187,30.65,30.65,0,0,0,192.92,164.5Z" transform="translate(-2 -1)"/><path class="cls-2" d="M56,119.95a24.44,24.44,0,0,1,2.34,10,23.67,23.67,0,0,1-24.28,24.26,24.37,24.37,0,0,1-17.27-7.4,24.42,24.42,0,0,1-7.42-17.22,23.69,23.69,0,0,1,24.28-24.32,25.37,25.37,0,0,1,6,.86l6-6a32.16,32.16,0,0,0-11.73-2.21,29.49,29.49,0,0,0-22.13,8.92c-6.53,6.53-9.74,14-9.82,22.91a30.16,30.16,0,0,0,9.31,22.56,30.44,30.44,0,0,0,22.52,9.32,30.44,30.44,0,0,0,22.52-9.32,31.82,31.82,0,0,0,5.38-38.08Z" transform="translate(-2 -1)"/></svg>