<svg id="icon_color" xmlns="http://www.w3.org/2000/svg" viewBox="0 0 223.85 187.66"><defs><style>.cls-1{fill:#7dd2f3;}.cls-2{fill:#9ca5ab;}</style></defs><title>cognizen_icon_color</title><path class="cls-1" d="M109.19,43h-.08c-.12,0-.55,0-1.54.22-.71.13-1.45.28-2.15.42l-.37.07c-.64.13-1.19.25-1.66.33l-.16,0a42.82,42.82,0,0,1-31.83-7.2A42.76,42.76,0,0,1,55.29,15.26v0l0,0L55,14.37A28.1,28.1,0,0,0,53,9.1l0,0,0,0A16.33,16.33,0,1,0,29.69,31a16.16,16.16,0,0,0,6,2.61h.1a27.72,27.72,0,0,0,5.64.12l.87,0h.06A43.07,43.07,0,0,1,85.8,69c.1.51.18,1.09.29,1.83.14,1,.46,3.19.71,4v.08a25.08,25.08,0,0,0,44.65,7.51,25.12,25.12,0,0,0-6.14-34.94A24.83,24.83,0,0,0,109.19,43Z" transform="translate(-1.15 -1.3)"/><path class="cls-1" d="M133.22,80.27l0,0,0,0a14.88,14.88,0,0,0,.66-1.41c.28-.66.56-1.36.83-2l.13-.35c.24-.61.44-1.13.63-1.57l.07-.14A42.83,42.83,0,0,1,159,52c8.63-3.45,33.74-10.49,42.71-8.12h.05l.84.24a27.74,27.74,0,0,0,5.53,1.18h.1A16.32,16.32,0,0,0,223.82,23a16.33,16.33,0,0,0-21.21-9.11,16.1,16.1,0,0,0-5.48,3.6l0,0,0,0a28.18,28.18,0,0,0-3.19,4.65l-.44.75,0,0v0c-4.87,7.89-27.82,20.36-36.46,23.8a42.76,42.76,0,0,1-32.63-.29c-.47-.19-1-.44-1.69-.76-.94-.44-2.92-1.36-3.77-1.62h-.08A25.08,25.08,0,0,0,88,77.33a25.11,25.11,0,0,0,32.6,14A24.83,24.83,0,0,0,133.22,80.27Z" transform="translate(-1.15 -1.3)"/><path class="cls-1" d="M85.73,68.66v.08c0,.11,0,.55.11,1.56.07.72.16,1.46.26,2.16l0,.37c.08.65.16,1.21.2,1.68v.15c1,11.33-1.25,23.45-9.56,31.21-28.69,26.77-29.89,27.37-38.88,29.64h-.06l-.85.19a27.75,27.75,0,0,0-5.41,1.63l0,0,0,0a16.33,16.33,0,0,0-2.8,27.11,16.34,16.34,0,0,0,23-2.29,16,16,0,0,0,3.05-5.79l0,0v0a26.82,26.82,0,0,0,.54-5.62c0-.36,0-.66,0-.88v-.05c.45-9.27-3.12-11.4,25.82-40.33,8-8,17.4-14.31,28.7-15.52.52-.06,1.1-.1,1.85-.15,1-.07,3.23-.22,4.08-.41h.09a25.08,25.08,0,0,0,10.83-44,25.11,25.11,0,0,0-35.3,3.51A24.77,24.77,0,0,0,85.73,68.66Z" transform="translate(-1.15 -1.3)"/><path class="cls-2" d="M64.24,140.27A28.6,28.6,0,0,1,67,152,27.65,27.65,0,0,1,38.6,180.32a28.47,28.47,0,0,1-20.17-8.65,28.54,28.54,0,0,1-8.67-20.12,27.69,27.69,0,0,1,28.37-28.41,29.62,29.62,0,0,1,7,1l7-7a37.62,37.62,0,0,0-13.71-2.58c-10.3-.08-18.75,3.32-25.85,10.42C5,132.58,1.24,141.33,1.15,151.72A35.23,35.23,0,0,0,12,178.07,35.55,35.55,0,0,0,38.34,189a35.55,35.55,0,0,0,26.31-10.89,37.18,37.18,0,0,0,6.28-44.49Z" transform="translate(-1.15 -1.3)"/></svg>