<svg id="_18x18_dashboard" data-name="18x18 dashboard" xmlns="http://www.w3.org/2000/svg" xmlns:xlink="http://www.w3.org/1999/xlink" viewBox="0 0 18 18"><defs><style>.cls-1{fill:url(#linear-gradient);}.cls-2{fill:#9ba4ab;}.cls-3{fill:#fff;}</style><linearGradient id="linear-gradient" x1="9" y1="17.75" x2="9" y2="0.25" gradientUnits="userSpaceOnUse"><stop offset="0" stop-color="#4e9bd4"/><stop offset="0.2" stop-color="#7dd2f1"/></linearGradient></defs><title>18x18</title><g id="outline"><g id="delete_course" data-name="delete course"><circle class="cls-1" cx="9" cy="9" r="8.75"/><path class="cls-2" d="M9,.5A8.5,8.5,0,1,1,.5,9,8.51,8.51,0,0,1,9,.5M9,0a9,9,0,1,0,9,9A9,9,0,0,0,9,0Z"/><path class="cls-3" d="M3.63,10.53a1.44,1.44,0,0,1,0-2.88H14.37a1.44,1.44,0,0,1,0,2.88Z"/><path class="cls-2" d="M14.37,7.9a1.19,1.19,0,0,1,0,2.38H3.63a1.19,1.19,0,0,1,0-2.38H14.37m0-.5H3.63a1.69,1.69,0,0,0,0,3.38H14.37a1.69,1.69,0,0,0,0-3.38Z"/></g></g></svg>