<svg id="_18x18_dashboard" data-name="18x18 dashboard" xmlns="http://www.w3.org/2000/svg" xmlns:xlink="http://www.w3.org/1999/xlink" viewBox="0 0 18 18"><defs><style>.cls-1{fill:url(#linear-gradient);}.cls-2{fill:#9ba4ab;}.cls-3{fill:#fff;}</style><linearGradient id="linear-gradient" x1="9" y1="17.75" x2="9" y2="0.25" gradientUnits="userSpaceOnUse"><stop offset="0" stop-color="#4e9bd4"/><stop offset="0.2" stop-color="#7dd2f1"/></linearGradient></defs><title>18x18</title><g id="outline"><g id="add_course" data-name="add course"><circle class="cls-1" cx="9" cy="9" r="8.75"/><path class="cls-2" d="M9,.5A8.5,8.5,0,1,1,.5,9,8.51,8.51,0,0,1,9,.5M9,0a9,9,0,1,0,9,9A9,9,0,0,0,9,0Z"/><path class="cls-3" d="M9,15.9a1.44,1.44,0,0,1-1.44-1.44V10.53H3.63a1.44,1.44,0,0,1,0-2.88H7.56V3.72a1.44,1.44,0,0,1,2.88,0V7.65h3.93a1.44,1.44,0,0,1,0,2.88H10.44v3.93A1.44,1.44,0,0,1,9,15.9Z"/><path class="cls-2" d="M9,2.53a1.19,1.19,0,0,1,1.19,1.19V7.9h4.18a1.19,1.19,0,0,1,0,2.38H10.19v4.18a1.19,1.19,0,0,1-2.38,0V10.28H3.63a1.19,1.19,0,0,1,0-2.38H7.81V3.72A1.19,1.19,0,0,1,9,2.53M9,2A1.7,1.7,0,0,0,7.31,3.72V7.4H3.63a1.69,1.69,0,0,0,0,3.38H7.31v3.68a1.69,1.69,0,0,0,3.38,0V10.78h3.68a1.69,1.69,0,0,0,0-3.38H10.69V3.72A1.7,1.7,0,0,0,9,2Z"/></g></g></svg>