<svg id="_18x18_dashboard" data-name="18x18 dashboard" xmlns="http://www.w3.org/2000/svg" xmlns:xlink="http://www.w3.org/1999/xlink" viewBox="0 0 18 18"><defs><style>.cls-1{fill:url(#linear-gradient);}.cls-2{fill:#9ba4ab;}.cls-3{fill:#fff;}</style><linearGradient id="linear-gradient" x1="9" y1="17.52" x2="9" y2="0.23" gradientUnits="userSpaceOnUse"><stop offset="0" stop-color="#4e9bd4"/><stop offset="0.2" stop-color="#7dd2f1"/></linearGradient></defs><title>18x18</title><g id="outline"><g id="answer_key" data-name="answer key"><path class="cls-1" d="M3.82,13.9l-.15-.1a7.23,7.23,0,0,1-3.42-6C.25,3.63,4.17.23,9,.23s8.75,3.4,8.75,7.57S13.83,15.38,9,15.38a10.11,10.11,0,0,1-1.62-.13H7.3l-4.5,2.29Z"/><path class="cls-2" d="M9,.48c4.69,0,8.5,3.29,8.5,7.32S13.69,15.13,9,15.13A9.77,9.77,0,0,1,7.43,15l-.16,0L7.12,15,3.2,17,4,14.15l.1-.35-.3-.2A7,7,0,0,1,.5,7.81C.5,3.77,4.31.48,9,.48M9,0C4,0,0,3.48,0,7.81A7.51,7.51,0,0,0,3.53,14L2.41,18l4.94-2.51A10.35,10.35,0,0,0,9,15.63c5,0,9-3.5,9-7.82S14,0,9,0Z"/><path class="cls-3" d="M11.62,12l-.55-1.82H6.83L6.29,12H3.36l4-10.52h3.37l4,10.52Zm-4.2-3.7h3.1L9,3.22Z"/><path class="cls-2" d="M10.51,1.72l3.77,10H11.8l-.44-1.46-.11-.35H6.64l-.11.36L6.1,11.74H3.72l3.77-10h3M7.08,8.54h3.77l-.2-.65-1.22-4L9,2.36,8.48,3.93l-1.2,4-.2.65m3.78-7.32H7.14L3,12.24H6.48L7,10.42h3.87l.55,1.82H15l-4.14-11ZM7.75,8l1.2-4,1.22,4Z"/></g></g></svg>