<svg id="_18x18_dashboard_-_Cognizen" data-name="18x18 dashboard - Cognizen" xmlns="http://www.w3.org/2000/svg" xmlns:xlink="http://www.w3.org/1999/xlink" viewBox="0 0 18 18"><defs><style>.cls-1{fill:#fff;}.cls-2{fill:url(#linear-gradient);}.cls-3{fill:#9ba4ab;}</style><linearGradient id="linear-gradient" x1="9" y1="17.75" x2="9" y2="0.25" gradientUnits="userSpaceOnUse"><stop offset="0.07" stop-color="#4e9bd4"/><stop offset="0.33" stop-color="#7dd2f1"/></linearGradient></defs><title>18x18</title><g id="outline"><g id="print"><polygon class="cls-1" points="9 0.74 4.11 0.74 4.11 5.13 1.17 5.13 1.17 9.45 4.21 9.45 4.21 16.66 14.2 16.66 14.2 0.74 9 0.74"/><g id="print_PDF" data-name="print PDF"><path class="cls-2" d="M4.43,17.75A1.55,1.55,0,0,1,2.88,16.2V12.34H.72a.47.47,0,0,1-.47-.47V4.3a.47.47,0,0,1,.47-.47H2.88v-2A1.55,1.55,0,0,1,4.43.25h9.14A1.55,1.55,0,0,1,15.13,1.8v2h2.15a.47.47,0,0,1,.47.47v7.57a.47.47,0,0,1-.47.47H15.13V16.2a1.55,1.55,0,0,1-1.55,1.55Zm.79-7.05a.56.56,0,0,0-.55.55v4.48a.56.56,0,0,0,.55.55h7.57a.56.56,0,0,0,.55-.55V11.25a.56.56,0,0,0-.55-.55ZM3.16,5.87A1.46,1.46,0,1,0,4.62,7.33,1.46,1.46,0,0,0,3.16,5.87ZM5.08,1.34a.56.56,0,0,0-.56.56V3.68h9V1.9a.56.56,0,0,0-.56-.56Z"/><path class="cls-3" d="M13.58.5a1.3,1.3,0,0,1,1.3,1.3V4.08h2.4a.22.22,0,0,1,.22.22v7.57a.22.22,0,0,1-.22.22h-2.4v4.1a1.3,1.3,0,0,1-1.3,1.3H4.43a1.3,1.3,0,0,1-1.3-1.3v-4.1H.72a.22.22,0,0,1-.22-.22V4.3a.22.22,0,0,1,.22-.22H3.13V1.8A1.3,1.3,0,0,1,4.43.5h9.14M4.27,3.93h9.48v-2a.81.81,0,0,0-.81-.81H5.08a.81.81,0,0,0-.81.81v2M3.16,9A1.71,1.71,0,1,0,2,8.54,1.71,1.71,0,0,0,3.16,9m2.06,7.49h7.57a.8.8,0,0,0,.8-.8V11.25a.8.8,0,0,0-.8-.8H5.22a.8.8,0,0,0-.8.8v4.48a.8.8,0,0,0,.8.8M13.58,0H4.43a1.81,1.81,0,0,0-1.8,1.8V3.58H.72A.72.72,0,0,0,0,4.3v7.57a.72.72,0,0,0,.72.72H2.63v3.6A1.81,1.81,0,0,0,4.43,18h9.14a1.81,1.81,0,0,0,1.8-1.8v-3.6h1.9a.72.72,0,0,0,.72-.72V4.3a.72.72,0,0,0-.72-.72h-1.9V1.8A1.81,1.81,0,0,0,13.58,0ZM4.77,3.43V1.9a.31.31,0,0,1,.31-.31h7.86a.31.31,0,0,1,.31.31V3.43ZM3.16,8.54A1.21,1.21,0,1,1,4.37,7.33,1.21,1.21,0,0,1,3.16,8.54ZM5.22,16a.3.3,0,0,1-.3-.3V11.25a.3.3,0,0,1,.3-.3h7.57a.3.3,0,0,1,.3.3v4.48a.3.3,0,0,1-.3.3Z"/></g></g></g></svg>