<svg id="_18x18_dashboard" data-name="18x18 dashboard" xmlns="http://www.w3.org/2000/svg" xmlns:xlink="http://www.w3.org/1999/xlink" viewBox="0 0 18 18"><defs><style>.cls-1,.cls-2{stroke:#474647;stroke-miterlimit:10;stroke-width:0.5px;}.cls-1{fill:url(#linear-gradient);}.cls-2{fill:url(#linear-gradient-2);}.cls-3{fill:url(#linear-gradient-3);}.cls-4{fill:url(#linear-gradient-4);}.cls-5{fill:url(#linear-gradient-5);}.cls-6{fill:url(#linear-gradient-6);}</style><linearGradient id="linear-gradient" x1="9.05" y1="8.19" x2="9.05" y2="3.01" gradientUnits="userSpaceOnUse"><stop offset="0" stop-color="#4e9bd4"/><stop offset="0.2" stop-color="#7dd2f1"/></linearGradient><linearGradient id="linear-gradient-2" x1="9.09" y1="16.5" x2="9.09" y2="8.66" xlink:href="#linear-gradient"/><linearGradient id="linear-gradient-3" x1="13.82" y1="1.32" x2="13.82" y2="6.11" gradientUnits="userSpaceOnUse"><stop offset="0" stop-color="#a5adb5"/><stop offset="0.21" stop-color="#9fa6ae"/><stop offset="0.52" stop-color="#8d939b"/><stop offset="0.88" stop-color="#71757b"/><stop offset="1" stop-color="#66696f"/></linearGradient><linearGradient id="linear-gradient-4" x1="4.15" y1="1.32" x2="4.15" y2="6.11" xlink:href="#linear-gradient-3"/><linearGradient id="linear-gradient-5" x1="14.75" y1="6.54" x2="14.75" y2="13.75" xlink:href="#linear-gradient-3"/><linearGradient id="linear-gradient-6" x1="3.32" y1="6.54" x2="3.32" y2="13.77" xlink:href="#linear-gradient-3"/></defs><title>18x18</title><g id="outline"><g id="manage_users" data-name="manage users"><circle class="cls-1" cx="9.05" cy="5.6" r="2.59"/><path class="cls-2" d="M10.7,8.66,9.07,10.56,7.45,8.66a5.32,5.32,0,0,0-2.91,4.92,6.24,6.24,0,0,0,.07.9,5.69,5.69,0,0,0,4.47,2,5.69,5.69,0,0,0,4.47-2,6.32,6.32,0,0,0,.07-.9A5.31,5.31,0,0,0,10.7,8.66Z"/><path class="cls-3" d="M13.77,1.32a2.39,2.39,0,0,0-2.3,1.78A3.47,3.47,0,0,1,12.54,5.6s0,.1,0,.15a2.39,2.39,0,1,0,1.24-4.43Z"/><path class="cls-4" d="M5.57,5.6a3.47,3.47,0,0,1,.95-2.38A2.39,2.39,0,1,0,4.18,6.11a2.37,2.37,0,0,0,1.39-.46S5.57,5.62,5.57,5.6Z"/><path class="cls-5" d="M15.29,6.54,13.79,8.3,12.38,6.65a3.48,3.48,0,0,1-.87,1.42,6.25,6.25,0,0,1,3,5.52c0,.05,0,.11,0,.16a5.14,5.14,0,0,0,3.42-1.81A5.68,5.68,0,0,0,18,11.1,4.91,4.91,0,0,0,15.29,6.54Z"/><path class="cls-6" d="M3.65,13.59a6.27,6.27,0,0,1,3-5.5A3.47,3.47,0,0,1,5.7,6.54h0L4.2,8.3,2.7,6.55A4.92,4.92,0,0,0,0,11.1a5.68,5.68,0,0,0,.07.84,5.17,5.17,0,0,0,3.58,1.83C3.65,13.71,3.65,13.65,3.65,13.59Z"/></g></g></svg>