<svg id="_18x18_dashboard" data-name="18x18 dashboard" xmlns="http://www.w3.org/2000/svg" xmlns:xlink="http://www.w3.org/1999/xlink" viewBox="0 0 18 18"><defs><style>.cls-1{fill:url(#linear-gradient);}.cls-2{fill:#9ba4ab;}</style><linearGradient id="linear-gradient" x1="9" y1="17.75" x2="9" y2="0.25" gradientUnits="userSpaceOnUse"><stop offset="0" stop-color="#4e9bd4"/><stop offset="0.2" stop-color="#7dd2f1"/></linearGradient></defs><title>18x18</title><g id="outline"><g id="preferences"><path class="cls-1" d="M7.13,17.75V14L7,13.9l-.19,0L4.13,16.51,1.49,13.87l2.71-2.71L4.11,11l0-.16H.25V7.13H4L4.07,7l.11-.17-.13-.17L1.49,4.13,4.13,1.49,6.84,4.19,7.13,4V.25h3.74V4l.3.15L11.31,4l2.56-2.56,2.64,2.64-2.69,2.7.09.17.07.14h3.77v3.74H14l-.07.14-.18.18.22.12,2.56,2.56-2.64,2.64-2.65-2.66-.13,0L11,14l-.09.18v3.62ZM9,5.34A3.66,3.66,0,1,0,12.66,9,3.67,3.67,0,0,0,9,5.34Z"/><path class="cls-2" d="M10.62.5V4.21l.31.13.31.13.23-.23,2.38-2.38,2.29,2.29L13.77,6.52l-.22.23.11.3.12.33H17.5v3.24H13.77l-.09.29-.19.29.29.29,2.38,2.38-2.29,2.29-2.38-2.38-.2-.2-.28.07-.06,0,0,0-.28.14V17.5H7.38V13.86l-.22-.15-.07,0h0l-.29-.15-.26.26L4.13,16.16,1.85,13.87l2.38-2.38.29-.29-.18-.27-.08-.31H.5V7.38H4.16l.14-.25,0,0v0l.14-.32-.24-.24L1.85,4.13,4.13,1.84,6.52,4.23l.28.28.31-.19.27-.14V.5h3.24M9,12.91A3.91,3.91,0,1,0,5.09,9,3.92,3.92,0,0,0,9,12.91M11.12,0H6.88V3.87h0L4.13,1.13l-3,3L3.88,6.87H0v4.24H3.88L1.14,13.87l3,3,2.74-2.74h0V18h4.24V14.13h0l2.74,2.74,3-3-2.74-2.74H18V6.88H14.13l2.74-2.74-3-3L11.13,3.87h0V0ZM9,12.41A3.41,3.41,0,1,1,12.41,9,3.41,3.41,0,0,1,9,12.41Z"/></g></g></svg>