<svg id="_18x18_dashboard" data-name="18x18 dashboard" xmlns="http://www.w3.org/2000/svg" xmlns:xlink="http://www.w3.org/1999/xlink" viewBox="0 0 18 18"><defs><style>.cls-1,.cls-2,.cls-3,.cls-4{stroke:#9ba4ab;stroke-miterlimit:10;stroke-width:0.5px;}.cls-1{fill:url(#linear-gradient);}.cls-2{fill:url(#linear-gradient-2);}.cls-3{fill:url(#linear-gradient-3);}.cls-4{fill:url(#linear-gradient-4);}</style><linearGradient id="linear-gradient" x1="6.56" y1="2.54" x2="6.56" y2="0.25" gradientUnits="userSpaceOnUse"><stop offset="0" stop-color="#4e9bd4"/><stop offset="0.2" stop-color="#7dd2f1"/></linearGradient><linearGradient id="linear-gradient-2" x1="9" y1="7.61" x2="9" y2="5.32" xlink:href="#linear-gradient"/><linearGradient id="linear-gradient-3" x1="11.44" y1="12.67" x2="11.44" y2="10.38" xlink:href="#linear-gradient"/><linearGradient id="linear-gradient-4" x1="6.56" y1="17.74" x2="6.56" y2="15.45" xlink:href="#linear-gradient"/></defs><title>18x18</title><g id="outline"><g id="outline_view" data-name="outline view"><path class="cls-1" d="M12.86,1.4a1.15,1.15,0,0,1-1.15,1.15H1.4A1.15,1.15,0,0,1,.25,1.4h0A1.15,1.15,0,0,1,1.4.25H11.71A1.15,1.15,0,0,1,12.86,1.4Z"/><path class="cls-2" d="M15.3,6.46a1.15,1.15,0,0,1-1.15,1.15H3.84A1.15,1.15,0,0,1,2.7,6.46h0A1.15,1.15,0,0,1,3.84,5.32H14.16A1.15,1.15,0,0,1,15.3,6.46Z"/><path class="cls-3" d="M17.75,11.53a1.15,1.15,0,0,1-1.15,1.15H6.29a1.15,1.15,0,0,1-1.15-1.15h0a1.15,1.15,0,0,1,1.15-1.15H16.6a1.15,1.15,0,0,1,1.15,1.15Z"/><path class="cls-4" d="M12.86,16.59a1.15,1.15,0,0,1-1.15,1.15H1.4A1.15,1.15,0,0,1,.25,16.59h0A1.15,1.15,0,0,1,1.4,15.45H11.71a1.15,1.15,0,0,1,1.15,1.15Z"/></g></g></svg>