<svg id="_18x18_dashboard" data-name="18x18 dashboard" xmlns="http://www.w3.org/2000/svg" xmlns:xlink="http://www.w3.org/1999/xlink" viewBox="0 0 18 18"><defs><style>.cls-1{fill:#fff;}.cls-2{fill:url(#linear-gradient);}.cls-3{fill:#9ba4ab;}</style><linearGradient id="linear-gradient" x1="9" y1="17.61" x2="9" y2="0.39" gradientUnits="userSpaceOnUse"><stop offset="0" stop-color="#4e9bd4"/><stop offset="0.2" stop-color="#7dd2f1"/></linearGradient></defs><title>18x18</title><g id="outline"><g id="search"><circle class="cls-1" cx="7.75" cy="7.08" r="5"/><path class="cls-2" d="M16.47,14.18,13.38,10.7A6.69,6.69,0,1,0,1.07,6.51a6.68,6.68,0,0,0,9.07,6.82l3.13,3.53a2.08,2.08,0,1,0,3.19-2.68ZM12.73,7.52A5,5,0,1,1,8.18,2.1,5,5,0,0,1,12.73,7.52ZM8.12,3,7.76,3a4,4,0,0,0-2.44.84.4.4,0,1,0,.49.63,3.18,3.18,0,0,1,2-.67H8a3.23,3.23,0,0,1,2.12,1.08.43.43,0,0,0,.56,0,.4.4,0,0,0,0-.56A4,4,0,0,0,8.12,3Z"/><path class="cls-3" d="M14.87,18h-.22A2.46,2.46,0,0,1,13,17.11L10,13.79A7.08,7.08,0,1,1,8.36,0,7.09,7.09,0,0,1,14.8,7.71a7,7,0,0,1-.94,2.95l2.9,3.28A2.47,2.47,0,0,1,14.87,18Zm-4.62-5.13,3.31,3.73a1.69,1.69,0,0,0,2.39.22,1.69,1.69,0,0,0,.21-2.38l-3.28-3.71.16-.25A6.3,6.3,0,0,0,8.29.81,6.32,6.32,0,0,0,1.46,6.54,6.28,6.28,0,0,0,10,13Z"/></g></g></svg>