<svg xmlns="http://www.w3.org/2000/svg" viewBox="0 0 30 30"><defs><style>.cls-1{fill:#3f403f;}</style></defs><title>playMedia</title><g id="_30x30_admin_-_Cognizen" data-name="30x30 admin - Cognizen"><g id="media_plyr-play" data-name="media plyr-play"><path class="cls-1" d="M15,3A12,12,0,1,1,3,15,12,12,0,0,1,15,3m0-3A15,15,0,1,0,30,15,15,15,0,0,0,15,0Z"/><path class="cls-1" d="M10.62,15V10.14a.67.67,0,0,1,1-.58L15.84,12,20,14.42a.67.67,0,0,1,0,1.16L15.84,18l-4.21,2.43a.67.67,0,0,1-1-.58Z"/></g></g></svg>