<?xml version="1.0" encoding="utf-8"?>
<!-- Generator: Adobe Illustrator 20.1.0, SVG Export Plug-In . SVG Version: 6.00 Build 0)  -->
<svg version="1.1" xmlns="http://www.w3.org/2000/svg" xmlns:xlink="http://www.w3.org/1999/xlink" x="0px" y="0px"
	 viewBox="0 0 19.9 17.4" style="enable-background:new 0 0 19.9 17.4;" xml:space="preserve">
<style type="text/css">
	.st0{fill:#464647;}
	.st1{fill:#FFFFFF;}
	.st2{fill:#1C3664;}
	.st3{fill:url(#SVGID_1_);}
	.st4{display:none;}
	.st5{display:inline;fill:url(#SVGID_2_);}
	.st6{display:inline;}
	.st7{fill:#464647;stroke:#A4A4A4;stroke-miterlimit:10;}
	.st8{fill:#7DD2F1;}
	.st9{fill:none;stroke:#464647;stroke-width:2;stroke-miterlimit:10;}
	.st10{display:none;fill:#FFFFFF;}
	.st11{fill:none;stroke:#464647;stroke-miterlimit:10;}
	.st12{display:none;fill:#7DD2F1;}
	.st13{fill:#F3F3F4;}
</style>
<g id="transcript">
</g>
<g id="test_out">
</g>
<g id="comment">
</g>
<g id="close_lesson">
	<rect id="back" x="0.5" y="0.5" class="st7" width="18.9" height="16.4"/>
	<path id="off" class="st12" d="M12.5,9.6l-0.9-0.9l0.9-0.9l2.2-2.2c0.1-0.1,0.1-0.3,0-0.4l-1.3-1.3c0,0,0,0,0,0
		c-0.1-0.1-0.1-0.1-0.2-0.1c-0.1,0-0.2,0-0.2,0.1l-3,3.1l-3-3.1C6.9,3.8,6.8,3.8,6.7,3.8c-0.1,0-0.2,0-0.2,0.1c0,0,0,0,0,0L5.2,5.2
		c-0.1,0.1-0.1,0.3,0,0.4l2.2,2.2l0.9,0.9L7.4,9.6l-2.2,2.2c-0.1,0.1-0.1,0.3,0,0.4l1.3,1.3c0,0,0,0,0,0c0.1,0.1,0.1,0.1,0.2,0.1
		c0.1,0,0.2,0,0.2-0.1l3-3.1l3,3.1c0.1,0.1,0.1,0.1,0.2,0.1c0.1,0,0.2,0,0.2-0.1c0,0,0,0,0,0l1.3-1.3c0.1-0.1,0.1-0.3,0-0.4
		L12.5,9.6z"/>
	<path id="over_1_" class="st13" d="M12.5,9.6l-0.9-0.9l0.9-0.9l2.2-2.2c0.1-0.1,0.1-0.3,0-0.4l-1.3-1.3c0,0,0,0,0,0
		c-0.1-0.1-0.1-0.1-0.2-0.1c-0.1,0-0.2,0-0.2,0.1l-3,3.1l-3-3.1C6.9,3.8,6.8,3.8,6.7,3.8c-0.1,0-0.2,0-0.2,0.1c0,0,0,0,0,0L5.2,5.2
		c-0.1,0.1-0.1,0.3,0,0.4l2.2,2.2l0.9,0.9L7.4,9.6l-2.2,2.2c-0.1,0.1-0.1,0.3,0,0.4l1.3,1.3c0,0,0,0,0,0c0.1,0.1,0.1,0.1,0.2,0.1
		c0.1,0,0.2,0,0.2-0.1l3-3.1l3,3.1c0.1,0.1,0.1,0.1,0.2,0.1c0.1,0,0.2,0,0.2-0.1c0,0,0,0,0,0l1.3-1.3c0.1-0.1,0.1-0.3,0-0.4
		L12.5,9.6z"/>
</g>
</svg>
