<?xml version="1.0" encoding="utf-8"?>
<!-- Generator: Adobe Illustrator 20.1.0, SVG Export Plug-In . SVG Version: 6.00 Build 0)  -->
<svg version="1.1" xmlns="http://www.w3.org/2000/svg" xmlns:xlink="http://www.w3.org/1999/xlink" x="0px" y="0px"
	 viewBox="0 0 20.9 19.5" style="enable-background:new 0 0 20.9 19.5;" xml:space="preserve">
<style type="text/css">
	.st0{fill:#464647;}
	.st1{fill:#FFFFFF;}
	.st2{fill:#1C3664;}
	.st3{fill:url(#SVGID_1_);}
	.st4{display:none;}
	.st5{display:inline;fill:url(#SVGID_2_);}
	.st6{display:inline;}
	.st7{fill:#464647;stroke:#FFFFFF;stroke-miterlimit:10;}
	.st8{fill:#7DD2F1;}
	.st9{fill:none;stroke:#464647;stroke-width:2;stroke-miterlimit:10;}
	.st10{display:none;fill:#FFFFFF;}
	.st11{fill:none;stroke:#464647;stroke-miterlimit:10;}
	.st12{display:none;fill:#F3F3F4;}
</style>
<g id="transcript">
</g>
<g id="test_out">
</g>
<g id="comment">
	<path id="frame" class="st9" d="M17.7,1H3.2C2,1,1,2,1,3.2v7.1c0,1.2,1,2.2,2.2,2.2h6.6v4.6l4.6-4.6h3.3c1.2,0,2.2-1,2.2-2.2V3.2
		C19.9,2,18.9,1,17.7,1z"/>
	<path id="off_1_" class="st8" d="M17.7,1H3.2C2,1,1,2,1,3.2v7.1c0,1.2,1,2.2,2.2,2.2h6.6v4.6l4.6-4.6h3.3c1.2,0,2.2-1,2.2-2.2V3.2
		C19.9,2,18.9,1,17.7,1z"/>
	<path id="over" class="st10" d="M17.7,1H3.2C2,1,1,2,1,3.2v7.1c0,1.2,1,2.2,2.2,2.2h6.6v4.6l4.6-4.6h3.3c1.2,0,2.2-1,2.2-2.2V3.2
		C19.9,2,18.9,1,17.7,1z"/>
	<line class="st11" x1="3.7" y1="4.3" x2="17.1" y2="4.3"/>
	<line class="st11" x1="3.7" y1="6.7" x2="17.1" y2="6.7"/>
	<line class="st11" x1="3.7" y1="9.2" x2="17.1" y2="9.2"/>
</g>
<g id="close_lesson">
</g>
</svg>
