<?xml version="1.0" encoding="utf-8"?>
<!-- Generator: Adobe Illustrator 20.1.0, SVG Export Plug-In . SVG Version: 6.00 Build 0)  -->
<svg version="1.1" xmlns="http://www.w3.org/2000/svg" xmlns:xlink="http://www.w3.org/1999/xlink" x="0px" y="0px"
	 viewBox="0 0 19.9 17.4" style="enable-background:new 0 0 19.9 17.4;" xml:space="preserve">
<style type="text/css">
	.st0{fill:#464647;}
	.st1{fill:#FFFFFF;}
	.st2{fill:#1C3664;}
	.st3{fill:url(#SVGID_1_);}
	.st4{display:none;}
	.st5{display:inline;fill:url(#SVGID_2_);}
	.st6{display:inline;}
	.st7{fill:#464647;stroke:#A4A4A4;stroke-miterlimit:10;}
	.st8{fill:#7DD2F1;}
	.st9{fill:none;stroke:#464647;stroke-width:2;stroke-miterlimit:10;}
	.st10{display:none;fill:#FFFFFF;}
	.st11{fill:none;stroke:#464647;stroke-miterlimit:10;}
	.st12{display:none;fill:#F3F3F4;}
</style>
<g id="transcript">
</g>
<g id="test_out">
	<rect id="back_1_" x="0.5" y="0.5" class="st7" width="18.9" height="16.4"/>
	<g id="off_2_" class="st4">
		<g class="st6">
			<path class="st8" d="M15.8,5.6c0.1-0.1,0.1-0.3,0-0.4l-1.3-1.3c-0.1-0.1-0.3-0.1-0.4,0L8,10c-0.1,0.1-0.3,0.1-0.4,0L5.8,8.2
				c-0.1-0.1-0.3-0.1-0.4,0L4.1,9.5C4,9.7,4,9.9,4.1,10l3.5,3.5c0.1,0.1,0.3,0.1,0.4,0L15.8,5.6z"/>
		</g>
	</g>
	<g id="over_2_">
		<g>
			<path class="st1" d="M15.8,5.6c0.1-0.1,0.1-0.3,0-0.4l-1.3-1.3c-0.1-0.1-0.3-0.1-0.4,0L8,10c-0.1,0.1-0.3,0.1-0.4,0L5.8,8.2
				c-0.1-0.1-0.3-0.1-0.4,0L4.1,9.5C4,9.7,4,9.9,4.1,10l3.5,3.5c0.1,0.1,0.3,0.1,0.4,0L15.8,5.6z"/>
		</g>
	</g>
</g>
<g id="comment">
</g>
<g id="close_lesson">
</g>
</svg>
