<svg xmlns="http://www.w3.org/2000/svg" xmlns:xlink="http://www.w3.org/1999/xlink" viewBox="0 0 20 20"><defs><style>.cls-1{fill:#016bae;}.cls-2{fill:#fff;}.cls-3{fill:url(#linear-gradient);}.cls-4{fill:none;stroke:#fff;stroke-miterlimit:10;}</style><linearGradient id="linear-gradient" x1="10.03" y1="0.57" x2="10.03" y2="19.6" gradientUnits="userSpaceOnUse"><stop offset="0" stop-color="#7ed2f1"/><stop offset="0.5" stop-color="#016bae"/></linearGradient></defs><title>20x20</title><g id="_20x20_editing_-_Cognizen" data-name="20x20 editing - Cognizen"><g id="light_back" data-name="light back"><path class="cls-1" d="M17.4.27a2.29,2.29,0,0,1,2.29,2.29V17.31A2.29,2.29,0,0,1,17.4,19.6H2.66A2.29,2.29,0,0,1,.36,17.31V2.57A2.29,2.29,0,0,1,2.66.27H17.4m0-.34H2.66A2.63,2.63,0,0,0,0,2.57V17.31a2.63,2.63,0,0,0,2.63,2.63H17.4A2.63,2.63,0,0,0,20,17.31V2.57A2.63,2.63,0,0,0,17.4-.06Z"/><rect class="cls-2" x="0.36" y="0.27" width="19.33" height="19.33" rx="2.29" ry="2.29"/><path class="cls-3" d="M17.4.91a2,2,0,0,1,2,2V17.31a2,2,0,0,1-2,2H2.66a2,2,0,0,1-2-2V2.87a2,2,0,0,1,2-2H17.4m0-.34H2.66A2.29,2.29,0,0,0,.36,2.87V17.31A2.29,2.29,0,0,0,2.66,19.6H17.4a2.29,2.29,0,0,0,2.29-2.29V2.87A2.29,2.29,0,0,0,17.4.57Z"/><g id="edit_media" data-name="edit media"><path class="cls-1" d="M5.16,19,10.62,6.68l2.67,4.81,2.25-8.6c1.3,5.55,3.44,14.66,3.49,15A1.88,1.88,0,0,1,17.54,19Z"/><path class="cls-1" d="M15.53,3.93C16.68,8.8,18.6,17,18.78,17.85a1.66,1.66,0,0,1-1.23.91h-12l5.1-11.52,2.13,3.82.61,1.09.32-1.2,1.84-7m0-2.07-2.35,9-2.61-4.7L4.77,19.27H17.54a2,2,0,0,0,1.74-1.43c0-.15-3.73-16-3.73-16Z"/><circle class="cls-1" cx="6.18" cy="5.95" r="2.73"/><path class="cls-4" d="M7.92,9.17l-1.71,2-1.71-2a5.6,5.6,0,0,0-3.07,5.19,6.53,6.53,0,0,0,.08,1,6,6,0,0,0,4.71,2.12,6,6,0,0,0,4.72-2.12,6.79,6.79,0,0,0,.07-1A5.6,5.6,0,0,0,7.92,9.17Z"/><path class="cls-1" d="M7.92,9.17l-1.71,2-1.71-2a5.6,5.6,0,0,0-3.07,5.19,6.53,6.53,0,0,0,.08,1,6,6,0,0,0,4.71,2.12,6,6,0,0,0,4.72-2.12,6.79,6.79,0,0,0,.07-1A5.6,5.6,0,0,0,7.92,9.17Z"/></g></g></g></svg>