<svg xmlns="http://www.w3.org/2000/svg" xmlns:xlink="http://www.w3.org/1999/xlink" viewBox="0 0 20 20"><defs><style>.cls-1{fill:#016bae;}.cls-2{fill:#fff;}.cls-3{fill:url(#linear-gradient);}</style><linearGradient id="linear-gradient" x1="10.03" y1="0.57" x2="10.03" y2="19.6" gradientUnits="userSpaceOnUse"><stop offset="0" stop-color="#7ed2f1"/><stop offset="0.5" stop-color="#016bae"/></linearGradient></defs><title>20x20</title><g id="_20x20_editing_-_Cognizen" data-name="20x20 editing - Cognizen"><g id="light_back" data-name="light back"><path class="cls-1" d="M17.4.27a2.29,2.29,0,0,1,2.29,2.29V17.31A2.29,2.29,0,0,1,17.4,19.6H2.66A2.29,2.29,0,0,1,.36,17.31V2.57A2.29,2.29,0,0,1,2.66.27H17.4m0-.34H2.66A2.63,2.63,0,0,0,0,2.57V17.31a2.63,2.63,0,0,0,2.63,2.63H17.4A2.63,2.63,0,0,0,20,17.31V2.57A2.63,2.63,0,0,0,17.4-.06Z"/><rect class="cls-2" x="0.36" y="0.27" width="19.33" height="19.33" rx="2.29" ry="2.29"/><path class="cls-3" d="M17.4.91a2,2,0,0,1,2,2V17.31a2,2,0,0,1-2,2H2.66a2,2,0,0,1-2-2V2.87a2,2,0,0,1,2-2H17.4m0-.34H2.66A2.29,2.29,0,0,0,.36,2.87V17.31A2.29,2.29,0,0,0,2.66,19.6H17.4a2.29,2.29,0,0,0,2.29-2.29V2.87A2.29,2.29,0,0,0,17.4.57Z"/><g id="drop_audio" data-name="drop audio"><path class="cls-1" d="M12.92,12.13a3.39,3.39,0,0,0-.8-1.68V6.11h-.61L9.29,10.27c-2.15,0-2.15-.12-2.15,1.56v.81c0,2-.12,1.86,2.15,1.86l2.22,4.22h.61V14a3.37,3.37,0,0,0,.8-1.68Z"/><polygon class="cls-1" points="9.04 4.51 6.34 4.51 6.34 1.81 4.36 1.81 4.36 4.51 1.66 4.51 1.66 6.49 4.36 6.49 4.36 9.19 6.34 9.19 6.34 6.49 9.04 6.49 9.04 4.51"/><path class="cls-1" d="M14.21,9.37l-.9.9a3,3,0,0,1,0,4.17l-.13.11.9.9.13-.11A4.26,4.26,0,0,0,14.21,9.37Zm2.14-2.14-.9.9a6,6,0,0,1,0,8.45l-.12.12.9.9.12-.12A7.28,7.28,0,0,0,16.35,7.23Z"/></g></g></g></svg>