<svg xmlns="http://www.w3.org/2000/svg" xmlns:xlink="http://www.w3.org/1999/xlink" viewBox="0 0 20 20"><defs><style>.cls-1{fill:#016bae;}.cls-2{fill:#fff;}.cls-3{fill:url(#linear-gradient);}</style><linearGradient id="linear-gradient" x1="10.03" y1="0.57" x2="10.03" y2="19.6" gradientUnits="userSpaceOnUse"><stop offset="0" stop-color="#7ed2f1"/><stop offset="0.5" stop-color="#016bae"/></linearGradient></defs><title>20x20</title><g id="_20x20_editing_-_Cognizen" data-name="20x20 editing - Cognizen"><g id="light_back" data-name="light back"><path class="cls-1" d="M17.4.27a2.29,2.29,0,0,1,2.29,2.29V17.31A2.29,2.29,0,0,1,17.4,19.6H2.66A2.29,2.29,0,0,1,.36,17.31V2.57A2.29,2.29,0,0,1,2.66.27H17.4m0-.34H2.66A2.63,2.63,0,0,0,0,2.57V17.31a2.63,2.63,0,0,0,2.63,2.63H17.4A2.63,2.63,0,0,0,20,17.31V2.57A2.63,2.63,0,0,0,17.4-.06Z"/><rect class="cls-2" x="0.36" y="0.27" width="19.33" height="19.33" rx="2.29" ry="2.29"/><path class="cls-3" d="M17.4.91a2,2,0,0,1,2,2V17.31a2,2,0,0,1-2,2H2.66a2,2,0,0,1-2-2V2.87a2,2,0,0,1,2-2H17.4m0-.34H2.66A2.29,2.29,0,0,0,.36,2.87V17.31A2.29,2.29,0,0,0,2.66,19.6H17.4a2.29,2.29,0,0,0,2.29-2.29V2.87A2.29,2.29,0,0,0,17.4.57Z"/><g id="edit_text" data-name="edit text"><path class="cls-1" d="M11.27,2.18a1,1,0,0,1,1.3-.32l2.68,1.63a1,1,0,0,1,.32,1.3l-.37.6L10.9,2.79Z"/><polygon class="cls-1" points="14.65 6.29 14.05 7.27 9.75 4.65 10.35 3.68 14.65 6.29"/><path class="cls-1" d="M4.95,17.93,7.71,16l-2.79-1.7-.39,3.34C4.47,18,4.66,18.15,4.95,17.93ZM6.6,13.12l4.07-6.71L9.24,5.54,5.17,12.25Zm2.87,1.74,4.07-6.71-1.43-.87L8,14ZM7.49,18a.38.38,0,0,0,.38.38h7.42a.38.38,0,0,0,0-.77H7.87A.38.38,0,0,0,7.49,18Z"/></g></g></g></svg>