<?xml version="1.0" encoding="utf-8"?>
<!-- Generator: Adobe Illustrator 20.1.0, SVG Export Plug-In . SVG Version: 6.00 Build 0)  -->
<svg version="1.1" xmlns="http://www.w3.org/2000/svg" xmlns:xlink="http://www.w3.org/1999/xlink" x="0px" y="0px"
	 viewBox="0 0 22 24" enable-background="new 0 0 22 24" xml:space="preserve">
<g id="icon_testing" display="none">
</g>
<g id="phone_icons_for_dev">
	<g id="icon" display="none">
		<g display="inline">
			<path fill="#F3F3F3" d="M10.6,7L10.6,7L10.6,7c0,0-0.1,0-0.2,0c-0.1,0-0.1,0-0.2,0l0,0c-0.1,0-0.1,0-0.2,0l0,0C9,7.2,7.9,7,7,6.4
				C6.3,5.9,5.7,5.1,5.4,4.3l0,0l0,0c0,0,0,0,0-0.1c0-0.1-0.1-0.4-0.2-0.5l0,0l0,0C5.1,3.5,4.9,3.3,4.8,3.2C4.4,3,4,2.9,3.6,3
				C3.2,3,2.8,3.3,2.6,3.6C2.1,4.3,2.2,5.3,3,5.8C3.1,5.9,3.3,6,3.5,6.1l0,0l0,0c0.1,0,0.4,0,0.5,0c0,0,0.1,0,0.1,0h0l0,0
				c0.9,0,1.8,0.2,2.5,0.8c0.9,0.6,1.5,1.6,1.7,2.7c0,0,0,0.1,0,0.2c0,0.1,0,0.3,0.1,0.4l0,0l0,0c0.2,0.5,0.5,1,0.9,1.3
				c0.5,0.4,1.2,0.5,1.8,0.4c0.6-0.1,1.2-0.5,1.6-1c0.8-1.1,0.5-2.6-0.6-3.4C11.7,7.1,11.2,6.9,10.6,7z"/>
			<path fill="#F3F3F3" d="M13,10.6L13,10.6L13,10.6c0,0,0-0.1,0.1-0.1c0-0.1,0.1-0.1,0.1-0.2l0,0c0-0.1,0-0.1,0.1-0.2l0,0
				c0.4-1,1.2-1.8,2.3-2.2c0.8-0.3,3.3-1,4.1-0.8l0,0l0,0c0,0,0,0,0.1,0c0.1,0,0.4,0.1,0.5,0.1l0,0l0,0c0.2,0,0.4,0,0.6-0.1
				c0.4-0.2,0.7-0.5,0.9-0.8c0.2-0.4,0.2-0.8,0-1.2c-0.3-0.8-1.2-1.2-2.1-0.9c-0.2,0.1-0.4,0.2-0.5,0.3l0,0l0,0
				c-0.1,0.1-0.3,0.4-0.3,0.4c0,0,0,0.1,0,0.1l0,0l0,0c-0.5,0.8-2.7,2-3.5,2.3c-1,0.4-2.1,0.4-3.2,0c0,0-0.1,0-0.2-0.1
				c-0.1,0-0.3-0.1-0.4-0.2l0,0l0,0C11,6.9,10.5,6.9,10,7.1C9.4,7.4,8.9,7.8,8.6,8.4c-0.3,0.6-0.3,1.3,0,1.9
				c0.5,1.2,1.9,1.8,3.2,1.4C12.3,11.4,12.7,11.1,13,10.6z"/>
			<path fill="#F3F3F3" d="M8.4,9.4L8.4,9.4L8.4,9.4c0,0,0,0.1,0,0.2c0,0.1,0,0.1,0,0.2l0,0c0,0.1,0,0.1,0,0.2l0,0
				c0.1,1.1-0.1,2.3-0.9,3c-2.8,2.6-2.9,2.6-3.8,2.9l0,0l0,0c0,0,0,0-0.1,0c-0.1,0-0.4,0.1-0.5,0.2l0,0l0,0
				c-0.2,0.1-0.4,0.2-0.5,0.4c-0.3,0.3-0.4,0.7-0.3,1.2c0,0.4,0.2,0.8,0.6,1.1c0.7,0.6,1.7,0.5,2.2-0.2c0.1-0.2,0.2-0.4,0.3-0.6l0,0
				l0,0c0-0.1,0.1-0.4,0.1-0.5c0,0,0-0.1,0-0.1v0v0c0-0.9-0.3-1.1,2.5-3.9c0.8-0.8,1.7-1.4,2.8-1.5c0,0,0.1,0,0.2,0
				c0.1,0,0.3,0,0.4,0l0,0l0,0c0.6-0.1,1-0.4,1.4-0.8c0.4-0.5,0.6-1.1,0.5-1.8c-0.1-0.6-0.4-1.2-0.9-1.6c-1-0.8-2.6-0.7-3.4,0.3
				C8.6,8.4,8.4,8.9,8.4,9.4z"/>
		</g>
		<path display="inline" fill="#F3F3F3" d="M6.3,16.4c0.2,0.3,0.3,0.7,0.3,1.1c0,0.8-0.3,1.4-0.8,2c-0.5,0.5-1.2,0.8-2,0.8
			c-0.8,0-1.4-0.3-2-0.8c-0.5-0.5-0.8-1.2-0.8-1.9c0-0.8,0.3-1.4,0.8-2c0.5-0.5,1.2-0.8,2-0.8c0.2,0,0.5,0,0.7,0.1l0.7-0.7
			c-0.4-0.2-0.8-0.2-1.3-0.2c-1,0-1.8,0.3-2.5,1c-0.7,0.7-1.1,1.6-1.1,2.6c0,1,0.3,1.8,1.1,2.5c0.7,0.7,1.5,1.1,2.5,1.1
			c1,0,1.8-0.3,2.5-1.1c0.7-0.7,1.1-1.5,1.1-2.5c0-0.7-0.2-1.2-0.5-1.8L6.3,16.4z"/>
	</g>
	<polygon id="next_1_" display="none" fill="#474647" points="3.7,22.1 3.7,1.9 18.3,12 	"/>
	<polygon id="next_hover" display="none" fill="#EEEEEE" points="3.7,22.1 3.7,1.9 18.3,12 	"/>
	<polygon id="back_1_" display="none" fill="#474647" points="18.3,22.1 18.3,1.9 3.7,12 	"/>
	<polygon id="back_hover" display="none" fill="#EEEEEE" points="18.3,22.1 18.3,1.9 3.7,12 	"/>
	<g id="user_guide_1_">
		<path fill="#474647" d="M11.4,21.7l-0.9,0l-1-0.5l-1-0.3l-1.1-0.2l-1.1-0.1l-6,0V3.4l6-1.5L7.4,2l1.2,0.2l1.1,0.3l1,0.4h0.5l1-0.4
			l1.1-0.3L14.5,2l1.2-0.1l6,1.5v17.2h-6.1l-1.1,0.1l-1.1,0.2l-1,0.3L11.4,21.7z M10.7,21h0.5l1-0.4l1.1-0.4l1.2-0.2l1.2-0.1l5.3,0
			V4l-5.3-1.3l-1.1,0L13.5,3l-1,0.3l-1.2,0.4l-0.8,0l-1-0.4L8.4,3L7.3,2.8l-1,0L1,4v15.9h5.3L7.5,20l1.2,0.2l1.1,0.3L10.7,21z"/>
		<polygon fill-rule="evenodd" clip-rule="evenodd" fill="#474647" points="10.6,4.5 10.6,21.7 11.4,21.7 11.4,4.5 10.6,4.5 		"/>
		<g>
			<polygon fill-rule="evenodd" clip-rule="evenodd" fill="#474647" points="2.2,11 2.2,12.1 8.9,12.1 8.9,11 2.2,11 			"/>
			<polygon fill-rule="evenodd" clip-rule="evenodd" fill="#474647" points="2.2,14.9 2.2,16.1 8.9,16.1 8.9,14.9 2.2,14.9 			"/>
			<polygon fill-rule="evenodd" clip-rule="evenodd" fill="#474647" points="2.2,7.1 2.2,8.2 8.9,8.2 8.9,7.1 2.2,7.1 			"/>
			<polygon fill-rule="evenodd" clip-rule="evenodd" fill="#474647" points="13.2,11 13.2,12.1 19.9,12.1 19.9,11 13.2,11 			"/>
			<polygon fill-rule="evenodd" clip-rule="evenodd" fill="#474647" points="13.2,14.9 13.2,16.1 19.9,16.1 19.9,14.9 13.2,14.9 			
				"/>
			<polygon fill-rule="evenodd" clip-rule="evenodd" fill="#474647" points="13.2,7.1 13.2,8.2 19.9,8.2 19.9,7.1 13.2,7.1 			"/>
		</g>
	</g>
	<g id="user_guide_hover" display="none">
		<path display="inline" fill="#EEEEEE" d="M11.4,21.7l-0.9,0l-1-0.5l-1-0.3l-1.1-0.2l-1.1-0.1l-6,0V3.4l6-1.5L7.4,2l1.2,0.2
			l1.1,0.3l1,0.4h0.5l1-0.4l1.1-0.3L14.5,2l1.2-0.1l6,1.5v17.2h-6.1l-1.1,0.1l-1.1,0.2l-1,0.3L11.4,21.7z M10.7,21h0.5l1-0.4
			l1.1-0.4l1.2-0.2l1.2-0.1l5.3,0V4l-5.3-1.3l-1.1,0L13.5,3l-1,0.3l-1.2,0.4l-0.8,0l-1-0.4L8.4,3L7.3,2.8l-1,0L1,4v15.9h5.3L7.5,20
			l1.2,0.2l1.1,0.3L10.7,21z"/>
		<polygon display="inline" fill-rule="evenodd" clip-rule="evenodd" fill="#EEEEEE" points="10.6,4.5 10.6,21.7 11.4,21.7 
			11.4,4.5 10.6,4.5 		"/>
		<g display="inline">
			<polygon fill-rule="evenodd" clip-rule="evenodd" fill="#EEEEEE" points="2.2,11 2.2,12.1 8.9,12.1 8.9,11 2.2,11 			"/>
			<polygon fill-rule="evenodd" clip-rule="evenodd" fill="#EEEEEE" points="2.2,14.9 2.2,16.1 8.9,16.1 8.9,14.9 2.2,14.9 			"/>
			<polygon fill-rule="evenodd" clip-rule="evenodd" fill="#EEEEEE" points="2.2,7.1 2.2,8.2 8.9,8.2 8.9,7.1 2.2,7.1 			"/>
			<polygon fill-rule="evenodd" clip-rule="evenodd" fill="#EEEEEE" points="13.2,11 13.2,12.1 19.9,12.1 19.9,11 13.2,11 			"/>
			<polygon fill-rule="evenodd" clip-rule="evenodd" fill="#EEEEEE" points="13.2,14.9 13.2,16.1 19.9,16.1 19.9,14.9 13.2,14.9 			
				"/>
			<polygon fill-rule="evenodd" clip-rule="evenodd" fill="#EEEEEE" points="13.2,7.1 13.2,8.2 19.9,8.2 19.9,7.1 13.2,7.1 			"/>
		</g>
	</g>
	<g id="index_1_" display="none">
		<rect x="7" y="4.8" display="inline" fill="#474647" width="14.8" height="2.2"/>
		<circle display="inline" fill="#474647" cx="2.2" cy="5.7" r="2"/>
		<rect x="7" y="11" display="inline" fill="#474647" width="14.8" height="2.2"/>
		<circle display="inline" fill="#474647" cx="2.2" cy="12" r="2"/>
		<rect x="7" y="17.3" display="inline" fill="#474647" width="14.8" height="2.2"/>
		<circle display="inline" fill="#474647" cx="2.2" cy="18.3" r="2"/>
	</g>
	<g id="index_hover" display="none">
		<rect x="7" y="4.8" display="inline" fill="#EEEEEE" width="14.8" height="2.2"/>
		<circle display="inline" fill="#EEEEEE" cx="2.2" cy="5.7" r="2"/>
		<rect x="7" y="11" display="inline" fill="#EEEEEE" width="14.8" height="2.2"/>
		<circle display="inline" fill="#EEEEEE" cx="2.2" cy="12" r="2"/>
		<rect x="7" y="17.3" display="inline" fill="#EEEEEE" width="14.8" height="2.2"/>
		<circle display="inline" fill="#EEEEEE" cx="2.2" cy="18.3" r="2"/>
	</g>
	<g id="glossary_1_" display="none">
		<g display="inline">
			<path fill="#474647" d="M1.1,17.1h2.7l0,0C4.5,17.1,5,16.6,5,16c0-0.6-0.5-1.1-1.1-1.1l0,0H1.1l0,0C0.5,14.8,0,15.3,0,16
				C0,16.6,0.5,17.1,1.1,17.1L1.1,17.1z"/>
			<path fill="#474647" d="M1.1,9.2h2.7l0,0C4.5,9.2,5,8.7,5,8c0-0.6-0.5-1.1-1.1-1.1l0,0H1.1l0,0C0.5,6.9,0,7.4,0,8
				C0,8.7,0.5,9.2,1.1,9.2L1.1,9.2z"/>
		</g>
		<path display="inline" fill="#474647" d="M18.7,24H5.2C3.4,24,2,22.6,2,20.9v-3.3h2.1c0.9,0,1.6-0.7,1.6-1.6
			c0-0.9-0.7-1.6-1.6-1.6H2V9.6h2.1c0.9,0,1.6-0.7,1.6-1.6S4.9,6.5,4.1,6.5H2V3.1C2,1.4,3.4,0,5.2,0h13.6c1.8,0,3.2,1.4,3.2,3.2
			v17.7C21.9,22.6,20.5,24,18.7,24z M2.7,18.3v2.5c0,1.3,1.1,2.4,2.4,2.4h13.6c1.3,0,2.4-1.1,2.4-2.4V3.1c0-1.3-1.1-2.4-2.4-2.4H5.2
			c-1.3,0-2.4,1.1-2.4,2.4v2.5h1.3c1.3,0,2.3,1,2.3,2.3s-1,2.3-2.3,2.3H2.7v3.2h1.3c1.3,0,2.3,1,2.3,2.3c0,1.3-1,2.3-2.3,2.3H2.7z"
			/>
		<g display="inline">
			<path fill="#474647" d="M14.4,8.8l-0.3-0.9h-3l-0.3,0.9c-0.1,0.4-0.3,0.6-0.3,0.7c-0.1,0.1-0.3,0.2-0.5,0.2
				c-0.2,0-0.4-0.1-0.5-0.2C9.3,9.4,9.2,9.3,9.2,9.1c0-0.1,0-0.2,0.1-0.3c0-0.1,0.1-0.3,0.2-0.4l1.9-4.7c0.1-0.1,0.1-0.3,0.2-0.5
				c0.1-0.2,0.2-0.3,0.2-0.5c0.1-0.1,0.2-0.2,0.3-0.3c0.1-0.1,0.3-0.1,0.5-0.1c0.2,0,0.4,0,0.5,0.1c0.1,0.1,0.2,0.2,0.3,0.3
				c0.1,0.1,0.2,0.3,0.2,0.4c0.1,0.1,0.1,0.3,0.2,0.6l1.9,4.7C16,8.6,16,8.9,16,9.1c0,0.2-0.1,0.3-0.2,0.5c-0.1,0.1-0.3,0.2-0.5,0.2
				c-0.1,0-0.2,0-0.3-0.1c-0.1,0-0.2-0.1-0.2-0.2c-0.1-0.1-0.1-0.2-0.2-0.3C14.5,9,14.5,8.9,14.4,8.8z M11.5,6.8h2.2l-1.1-3
				L11.5,6.8z"/>
			<path fill="#474647" d="M9.6,20.2l3.8-4.5h-3.2c-0.2,0-0.4-0.1-0.5-0.1c-0.1-0.1-0.2-0.2-0.2-0.4c0-0.2,0.1-0.3,0.2-0.4
				c0.1-0.1,0.3-0.2,0.5-0.2h4.2c0.5,0,0.8,0.3,0.8,0.8c0,0.2,0,0.4-0.1,0.6c-0.1,0.1-0.3,0.4-0.5,0.7l-3.5,4.2h3.9
				c0.2,0,0.4,0,0.5,0.1c0.1,0.1,0.2,0.2,0.2,0.4c0,0.2-0.1,0.3-0.2,0.4c-0.1,0.1-0.3,0.2-0.5,0.2H10c-0.3,0-0.6-0.1-0.7-0.2
				C9.1,21.5,9,21.3,9,21.1c0-0.1,0-0.2,0-0.2c0-0.1,0.1-0.1,0.1-0.2c0-0.1,0.1-0.1,0.2-0.2C9.4,20.3,9.5,20.2,9.6,20.2z"/>
		</g>
		<path display="inline" fill="#474647" d="M9.3,13.1h6.5l0,0c0.6,0,1.1-0.5,1.1-1.1c0-0.6-0.5-1.1-1.1-1.1l0,0H9.3l0,0
			c-0.6,0-1.1,0.5-1.1,1.1C8.2,12.6,8.7,13.1,9.3,13.1L9.3,13.1z"/>
	</g>
	<g id="glossary_hover" display="none">
		<g display="inline">
			<path fill="#EEEEEE" d="M1.1,17.1h2.7l0,0C4.5,17.1,5,16.6,5,16c0-0.6-0.5-1.1-1.1-1.1l0,0H1.1l0,0C0.5,14.8,0,15.3,0,16
				C0,16.6,0.5,17.1,1.1,17.1L1.1,17.1z"/>
			<path fill="#EEEEEE" d="M1.1,9.2h2.7l0,0C4.5,9.2,5,8.7,5,8c0-0.6-0.5-1.1-1.1-1.1l0,0H1.1l0,0C0.5,6.9,0,7.4,0,8
				C0,8.7,0.5,9.2,1.1,9.2L1.1,9.2z"/>
		</g>
		<path display="inline" fill="#EEEEEE" d="M18.7,24H5.2C3.4,24,2,22.6,2,20.9v-3.3h2.1c0.9,0,1.6-0.7,1.6-1.6
			c0-0.9-0.7-1.6-1.6-1.6H2V9.6h2.1c0.9,0,1.6-0.7,1.6-1.6S4.9,6.5,4.1,6.5H2V3.1C2,1.4,3.4,0,5.2,0h13.6c1.8,0,3.2,1.4,3.2,3.2
			v17.7C21.9,22.6,20.5,24,18.7,24z M2.7,18.3v2.5c0,1.3,1.1,2.4,2.4,2.4h13.6c1.3,0,2.4-1.1,2.4-2.4V3.1c0-1.3-1.1-2.4-2.4-2.4H5.2
			c-1.3,0-2.4,1.1-2.4,2.4v2.5h1.3c1.3,0,2.3,1,2.3,2.3s-1,2.3-2.3,2.3H2.7v3.2h1.3c1.3,0,2.3,1,2.3,2.3c0,1.3-1,2.3-2.3,2.3H2.7z"
			/>
		<g display="inline">
			<path fill="#EEEEEE" d="M14.4,8.8l-0.3-0.9h-3l-0.3,0.9c-0.1,0.4-0.3,0.6-0.3,0.7c-0.1,0.1-0.3,0.2-0.5,0.2
				c-0.2,0-0.4-0.1-0.5-0.2C9.3,9.4,9.2,9.3,9.2,9.1c0-0.1,0-0.2,0.1-0.3c0-0.1,0.1-0.3,0.2-0.4l1.9-4.7c0.1-0.1,0.1-0.3,0.2-0.5
				c0.1-0.2,0.2-0.3,0.2-0.5c0.1-0.1,0.2-0.2,0.3-0.3c0.1-0.1,0.3-0.1,0.5-0.1c0.2,0,0.4,0,0.5,0.1c0.1,0.1,0.2,0.2,0.3,0.3
				c0.1,0.1,0.2,0.3,0.2,0.4c0.1,0.1,0.1,0.3,0.2,0.6l1.9,4.7C16,8.6,16,8.9,16,9.1c0,0.2-0.1,0.3-0.2,0.5c-0.1,0.1-0.3,0.2-0.5,0.2
				c-0.1,0-0.2,0-0.3-0.1c-0.1,0-0.2-0.1-0.2-0.2c-0.1-0.1-0.1-0.2-0.2-0.3C14.5,9,14.5,8.9,14.4,8.8z M11.5,6.8h2.2l-1.1-3
				L11.5,6.8z"/>
			<path fill="#EEEEEE" d="M9.6,20.2l3.8-4.5h-3.2c-0.2,0-0.4-0.1-0.5-0.1c-0.1-0.1-0.2-0.2-0.2-0.4c0-0.2,0.1-0.3,0.2-0.4
				c0.1-0.1,0.3-0.2,0.5-0.2h4.2c0.5,0,0.8,0.3,0.8,0.8c0,0.2,0,0.4-0.1,0.6c-0.1,0.1-0.3,0.4-0.5,0.7l-3.5,4.2h3.9
				c0.2,0,0.4,0,0.5,0.1c0.1,0.1,0.2,0.2,0.2,0.4c0,0.2-0.1,0.3-0.2,0.4c-0.1,0.1-0.3,0.2-0.5,0.2H10c-0.3,0-0.6-0.1-0.7-0.2
				C9.1,21.5,9,21.3,9,21.1c0-0.1,0-0.2,0-0.2c0-0.1,0.1-0.1,0.1-0.2c0-0.1,0.1-0.1,0.2-0.2C9.4,20.3,9.5,20.2,9.6,20.2z"/>
		</g>
		<path display="inline" fill="#EEEEEE" d="M9.3,13.1h6.5l0,0c0.6,0,1.1-0.5,1.1-1.1c0-0.6-0.5-1.1-1.1-1.1l0,0H9.3l0,0
			c-0.6,0-1.1,0.5-1.1,1.1C8.2,12.6,8.7,13.1,9.3,13.1L9.3,13.1z"/>
	</g>
	<g id="testout_1_" display="none">
		<path display="inline" fill="#474647" d="M22,21.6H0V2.4h22V21.6z M0.8,20.8h20.4V3.2H0.8V20.8z"/>
		<g id="off_1_" display="inline">
			<g>
				<path fill="#474647" d="M17.6,8.5c0.1-0.1,0.1-0.4,0-0.5l-1.5-1.5c-0.1-0.1-0.4-0.1-0.5,0l-6.8,6.9c-0.1,0.1-0.4,0.1-0.5,0l-2-2
					c-0.1-0.1-0.4-0.1-0.5,0L4.4,13c-0.1,0.1-0.1,0.4,0,0.5l4,4c0.1,0.1,0.4,0.1,0.5,0L17.6,8.5z"/>
			</g>
		</g>
	</g>
	<g id="testout_hover" display="none">
		<path display="inline" fill="#EDEDED" d="M22,21.6H0V2.4h22V21.6z M0.8,20.8h20.4V3.2H0.8V20.8z"/>
		<g id="off_3_" display="inline">
			<g>
				<path fill="#EDEDED" d="M17.6,8.5c0.1-0.1,0.1-0.4,0-0.5l-1.5-1.5c-0.1-0.1-0.4-0.1-0.5,0l-6.8,6.9c-0.1,0.1-0.4,0.1-0.5,0l-2-2
					c-0.1-0.1-0.4-0.1-0.5,0L4.4,13c-0.1,0.1-0.1,0.4,0,0.5l4,4c0.1,0.1,0.4,0.1,0.5,0L17.6,8.5z"/>
			</g>
		</g>
	</g>
	<g id="comment_1_" display="none">
		<path display="inline" fill="#474647" d="M9.9,23v-6.1h-7c-1.6,0-2.9-1.4-2.9-3V5.4c0-1.7,1.3-3,2.9-3h16.3c1.6,0,2.9,1.4,2.9,3
			v8.5c0,1.7-1.3,3-2.9,3h-3.5L9.9,23z M2.9,3.2c-1.1,0-2,1-2,2.2v8.5c0,1.2,0.9,2.2,2,2.2h7.8v4.9l4.5-4.9h3.9c1.1,0,2-1,2-2.2V5.4
			c0-1.2-0.9-2.2-2-2.2H2.9z"/>
		<rect x="3.4" y="6.2" display="inline" fill="#474647" width="15" height="1.2"/>
		<rect x="3.4" y="9.1" display="inline" fill="#474647" width="15" height="1.2"/>
		<rect x="3.4" y="12" display="inline" fill="#474647" width="15" height="1.2"/>
	</g>
	<g id="comment_hover" display="none">
		<path display="inline" fill="#EEEEEE" d="M9.9,23v-6.1h-7c-1.6,0-2.9-1.4-2.9-3V5.4c0-1.7,1.3-3,2.9-3h16.3c1.6,0,2.9,1.4,2.9,3
			v8.5c0,1.7-1.3,3-2.9,3h-3.5L9.9,23z M2.9,3.2c-1.1,0-2,1-2,2.2v8.5c0,1.2,0.9,2.2,2,2.2h7.8v4.9l4.5-4.9h3.9c1.1,0,2-1,2-2.2V5.4
			c0-1.2-0.9-2.2-2-2.2H2.9z"/>
		<rect x="3.4" y="6.2" display="inline" fill="#EEEEEE" width="15" height="1.2"/>
		<rect x="3.4" y="9.1" display="inline" fill="#EEEEEE" width="15" height="1.2"/>
		<rect x="3.4" y="12" display="inline" fill="#EEEEEE" width="15" height="1.2"/>
	</g>
</g>
<g id="tablet_icons_for_dev" display="none">
	<g id="home__x28_temp_for_demos_x29_">
		<path display="inline" fill="#464646" d="M18.3,23.9H3.7c-0.3,0-0.6-0.1-0.8-0.4c-0.2-0.3-0.3-0.6-0.3-0.9v-9.2
			c-0.6,0.4-1.4,0.2-1.9-0.4c-0.3-0.4-0.4-0.9-0.4-1.4c0-0.5,0.2-1,0.5-1.3L10,0.5c0.3-0.3,0.6-0.4,0.9-0.5c0,0,0.1,0,0.1,0l0.1,0
			c0.4,0,0.7,0.2,0.9,0.5l9.1,9.7c0.3,0.3,0.5,0.8,0.5,1.3c0,0.5-0.1,1-0.4,1.4c-0.3,0.4-0.7,0.6-1.2,0.6l0,0
			c-0.3,0-0.5-0.1-0.7-0.2v9.2c0,0.4-0.1,0.7-0.3,0.9C18.9,23.8,18.6,23.9,18.3,23.9z M3.4,11.2v11.4c0,0.1,0,0.2,0.1,0.2
			c0.1,0.1,0.1,0.1,0.2,0.1h14.6c0.1,0,0.1,0,0.2-0.1c0.1-0.1,0.1-0.1,0.1-0.2V11.2l1.1,1.1c0.3,0.3,0.8,0.3,1.1-0.1
			c0.1-0.2,0.2-0.4,0.2-0.6c0-0.2-0.1-0.5-0.2-0.6l-9.1-9.7c-0.1-0.1-0.3-0.2-0.4-0.2l-0.1,0c-0.2,0-0.3,0.1-0.4,0.2L1.4,11
			c-0.2,0.2-0.2,0.4-0.3,0.6c0,0.2,0.1,0.5,0.2,0.6c0.3,0.4,0.8,0.4,1.1,0.1L3.4,11.2z"/>
		<path display="inline" fill="#464646" d="M13.8,19.5H8v-8.7h5.8V19.5z M8.8,18.5H13v-6.7H8.8"/>
	</g>
	<polygon id="next" fill="#464646" points="3.7,22.1 3.7,1.9 18.3,12 	"/>
	<polygon id="back" fill="#464646" points="18.3,22.1 18.3,1.9 3.7,12 	"/>
	<g id="user_guide">
		
			<polygon display="inline" fill-rule="evenodd" clip-rule="evenodd" fill="none" stroke="#464646" stroke-width="0.766" stroke-miterlimit="10" points="
			10.6,21.3 9.6,20.9 8.5,20.5 7.4,20.3 6.3,20.2 0.6,20.2 0.6,3.7 6.3,2.3 7.4,2.4 8.5,2.6 9.6,3 10.6,3.4 11.3,3.4 12.4,3 
			13.5,2.6 14.6,2.4 15.7,2.3 21.4,3.7 21.4,20.2 15.7,20.2 14.6,20.3 13.5,20.5 12.4,20.9 11.3,21.3 10.6,21.3 10.6,21.3 		"/>
		<polygon display="inline" fill-rule="evenodd" clip-rule="evenodd" fill="#464646" points="10.6,4.5 10.6,21.7 11.4,21.7 
			11.4,4.5 10.6,4.5 		"/>
		<g display="inline">
			<polygon fill-rule="evenodd" clip-rule="evenodd" fill="#464646" points="2.2,11 2.2,12.1 8.9,12.1 8.9,11 2.2,11 			"/>
			<polygon fill-rule="evenodd" clip-rule="evenodd" fill="#464646" points="2.2,14.9 2.2,16.1 8.9,16.1 8.9,14.9 2.2,14.9 			"/>
			<polygon fill-rule="evenodd" clip-rule="evenodd" fill="#464646" points="2.2,7.1 2.2,8.2 8.9,8.2 8.9,7.1 2.2,7.1 			"/>
			<polygon fill-rule="evenodd" clip-rule="evenodd" fill="#464646" points="13.2,11 13.2,12.1 19.9,12.1 19.9,11 13.2,11 			"/>
			<polygon fill-rule="evenodd" clip-rule="evenodd" fill="#464646" points="13.2,14.9 13.2,16.1 19.9,16.1 19.9,14.9 13.2,14.9 			
				"/>
			<polygon fill-rule="evenodd" clip-rule="evenodd" fill="#464646" points="13.2,7.1 13.2,8.2 19.9,8.2 19.9,7.1 13.2,7.1 			"/>
		</g>
	</g>
	<g id="index">
		<rect x="7" y="4.8" display="inline" fill="#464646" width="14.8" height="2.2"/>
		<circle display="inline" fill="#464646" cx="2.2" cy="5.7" r="2"/>
		<rect x="7" y="11" display="inline" fill="#464646" width="14.8" height="2.2"/>
		<circle display="inline" fill="#464646" cx="2.2" cy="12" r="2"/>
		<rect x="7" y="17.3" display="inline" fill="#464646" width="14.8" height="2.2"/>
		<circle display="inline" fill="#464646" cx="2.2" cy="18.3" r="2"/>
	</g>
	<g id="glossary" display="inline">
		<g>
			<path fill="#474647" d="M1.1,17.1h2.7l0,0C4.5,17.1,5,16.6,5,16c0-0.6-0.5-1.1-1.1-1.1l0,0H1.1l0,0C0.5,14.8,0,15.3,0,16
				C0,16.6,0.5,17.1,1.1,17.1L1.1,17.1z"/>
			<path fill="#474647" d="M1.1,9.2h2.7l0,0C4.5,9.2,5,8.7,5,8c0-0.6-0.5-1.1-1.1-1.1l0,0H1.1l0,0C0.5,6.9,0,7.4,0,8
				C0,8.7,0.5,9.2,1.1,9.2L1.1,9.2z"/>
		</g>
		<path fill="none" stroke="#474647" stroke-width="0.766" d="M18.7,0.3H5.2c-1.5,0-2.8,1.3-2.8,2.8v2.9h1.7c1.1,0,2,0.9,2,2
			c0,1.1-0.9,2-2,2H2.4v4h1.7c1.1,0,2,0.9,2,2c0,1.1-0.9,2-2,2H2.4v2.9c0,1.5,1.3,2.8,2.8,2.8h13.6c1.5,0,2.8-1.3,2.8-2.8V3.1
			C21.5,1.6,20.3,0.3,18.7,0.3z"/>
		<g>
			<path fill="#474647" d="M14.4,8.8l-0.3-0.9h-3l-0.3,0.9c-0.1,0.4-0.3,0.6-0.3,0.7c-0.1,0.1-0.3,0.2-0.5,0.2
				c-0.2,0-0.4-0.1-0.5-0.2C9.3,9.4,9.2,9.3,9.2,9.1c0-0.1,0-0.2,0.1-0.3c0-0.1,0.1-0.3,0.2-0.4l1.9-4.7c0.1-0.1,0.1-0.3,0.2-0.5
				c0.1-0.2,0.2-0.3,0.2-0.5c0.1-0.1,0.2-0.2,0.3-0.3c0.1-0.1,0.3-0.1,0.5-0.1c0.2,0,0.4,0,0.5,0.1c0.1,0.1,0.2,0.2,0.3,0.3
				c0.1,0.1,0.2,0.3,0.2,0.4c0.1,0.1,0.1,0.3,0.2,0.6l1.9,4.7C16,8.6,16,8.9,16,9.1c0,0.2-0.1,0.3-0.2,0.5c-0.1,0.1-0.3,0.2-0.5,0.2
				c-0.1,0-0.2,0-0.3-0.1c-0.1,0-0.2-0.1-0.2-0.2c-0.1-0.1-0.1-0.2-0.2-0.3C14.5,9,14.5,8.9,14.4,8.8z M11.5,6.8h2.2l-1.1-3
				L11.5,6.8z"/>
			<path fill="#474647" d="M9.6,20.2l3.8-4.5h-3.2c-0.2,0-0.4-0.1-0.5-0.1c-0.1-0.1-0.2-0.2-0.2-0.4c0-0.2,0.1-0.3,0.2-0.4
				c0.1-0.1,0.3-0.2,0.5-0.2h4.2c0.5,0,0.8,0.3,0.8,0.8c0,0.2,0,0.4-0.1,0.6c-0.1,0.1-0.3,0.4-0.5,0.7l-3.5,4.2h3.9
				c0.2,0,0.4,0,0.5,0.1c0.1,0.1,0.2,0.2,0.2,0.4c0,0.2-0.1,0.3-0.2,0.4c-0.1,0.1-0.3,0.2-0.5,0.2H10c-0.3,0-0.6-0.1-0.7-0.2
				C9.1,21.5,9,21.3,9,21.1c0-0.1,0-0.2,0-0.2c0-0.1,0.1-0.1,0.1-0.2c0-0.1,0.1-0.1,0.2-0.2C9.4,20.3,9.5,20.2,9.6,20.2z"/>
		</g>
		<path fill="#474647" d="M9.3,13.1h6.5l0,0c0.6,0,1.1-0.5,1.1-1.1c0-0.6-0.5-1.1-1.1-1.1l0,0H9.3l0,0c-0.6,0-1.1,0.5-1.1,1.1
			C8.2,12.6,8.7,13.1,9.3,13.1L9.3,13.1z"/>
	</g>
</g>
<g id="hex_codes">
</g>
<g id="Nexus_7_tablet_3">
</g>
<g id="Nexus_7_tablet_2" display="none">
</g>
<g id="Nexus_7_tablet_1" display="none">
</g>
<g id="tablet">
	<g id="header_2">
	</g>
	<g id="header_1" display="none">
	</g>
</g>
<g id="phone">
	<g id="light_theme__x28_not_used_x29_" display="none">
	</g>
	<g id="contrast_theme">
		<g id="content">
		</g>
		<g id="footer_legacy" display="none">
		</g>
		<g id="footer_common">
			<g id="small_icons">
			</g>
			<g id="large_icons" display="none">
			</g>
		</g>
		<g id="header">
		</g>
	</g>
</g>
</svg>
