<svg id="base" xmlns="http://www.w3.org/2000/svg" viewBox="0 0 87 21"><defs><style>.cls-1{fill:#fff;}.cls-2{fill:#a4a3a4;}.cls-3,.cls-4{fill:#464648;}.cls-4{font-size:11px;font-family:Arial-BoldMT, Arial;font-weight:700;}.cls-5{letter-spacing:-0.07em;}</style></defs><title>Artboard 1</title><g id="base-2" data-name="base"><path class="cls-1" d="M6.09,19.5a5.32,5.32,0,0,1-5.5-5.1V5.6A5.32,5.32,0,0,1,6.09.5h74a5.32,5.32,0,0,1,5.5,5.1V14.4a5.32,5.32,0,0,1-5.5,5.1Z"/><path class="cls-2" d="M80.09,1a4.82,4.82,0,0,1,5,4.6V14.4a4.82,4.82,0,0,1-5,4.6h-74a4.82,4.82,0,0,1-5-4.6V5.6a4.82,4.82,0,0,1,5-4.6h74m0-1h-74a5.81,5.81,0,0,0-6,5.6V14.4a5.81,5.81,0,0,0,6,5.6h74a5.81,5.81,0,0,0,6-5.6V5.6a5.81,5.81,0,0,0-6-5.6Z"/><polygon class="cls-3" points="70.65 12.45 70.65 16.14 62.18 16.14 62.18 8.32 66.75 8.32 68.49 6.58 60.44 6.58 60.44 17.88 72.39 17.88 72.39 10.71 70.65 12.45"/><text class="cls-4" transform="translate(10.62 14.01)">EX<tspan class="cls-5" x="14.67" y="0">P</tspan><tspan x="21.19" y="0">AND</tspan></text><rect class="cls-1" x="63.2" y="4.85" width="9.43" height="9.43"/><rect class="cls-2" x="65.06" y="2.5" width="4.38" height="4.38"/><rect class="cls-2" x="65.06" y="7.88" width="4.38" height="4.38"/><rect class="cls-2" x="70.61" y="2.5" width="4.38" height="4.38"/><rect class="cls-2" x="70.61" y="7.88" width="4.38" height="4.38"/></g></svg>