<svg xmlns="http://www.w3.org/2000/svg" xmlns:xlink="http://www.w3.org/1999/xlink" viewBox="0 0 35 40"><defs><style>.cls-1{fill:none;}.cls-2{clip-path:url(#clip-path);}.cls-3{fill:url(#linear-gradient);}.cls-4{fill:url(#linear-gradient-2);}.cls-5{fill:url(#linear-gradient-3);}.cls-6{fill:#016bae;}.cls-7{fill:url(#linear-gradient-4);}.cls-8{fill:#fff;}</style><clipPath id="clip-path"><rect class="cls-1" width="35" height="40"/></clipPath><linearGradient id="linear-gradient" x1="15.12" y1="40" x2="15.12" gradientUnits="userSpaceOnUse"><stop offset="0" stop-color="#00529b"/><stop offset="0.51" stop-color="#27aae1"/></linearGradient><linearGradient id="linear-gradient-2" x1="32.64" y1="50.23" x2="2.85" y2="-1.16" gradientUnits="userSpaceOnUse"><stop offset="0" stop-color="#016bae"/><stop offset="0.49" stop-color="#7ed2f1"/><stop offset="1" stop-color="#fff"/></linearGradient><linearGradient id="linear-gradient-3" x1="15.12" y1="39.39" x2="15.12" y2="1.15" gradientUnits="userSpaceOnUse"><stop offset="0.12" stop-color="#27aae1"/><stop offset="1" stop-color="#00529b"/></linearGradient><linearGradient id="linear-gradient-4" x1="5.13" y1="7.21" x2="30.7" y2="32.79" gradientUnits="userSpaceOnUse"><stop offset="0" stop-color="#7ed2f1"/><stop offset="0.61" stop-color="#016bae"/><stop offset="0.99" stop-color="#016bae"/></linearGradient></defs><title>35X40</title><g id="_35x40_tabs_-_Cognizen" data-name="35x40 tabs - Cognizen"><g class="cls-2"><path class="cls-3" d="M30.23.61a4.16,4.16,0,0,1,4.16,4.16V35.24a4.16,4.16,0,0,1-4.16,4.16H0a4.16,4.16,0,0,1-4.16-4.16V4.77A4.16,4.16,0,0,1,0,.61H30.23m0-.61H0A4.77,4.77,0,0,0-4.77,4.77V35.24A4.77,4.77,0,0,0,0,40H30.23A4.77,4.77,0,0,0,35,35.24V4.77A4.77,4.77,0,0,0,30.23,0Z"/><rect class="cls-4" x="-4.16" y="0.61" width="38.55" height="38.79" rx="4.16" ry="4.16"/><path class="cls-5" d="M30.23,1.76a3.56,3.56,0,0,1,3.55,3.55V35.24a3.56,3.56,0,0,1-3.55,3.55H0a3.56,3.56,0,0,1-3.55-3.55V5.32A3.56,3.56,0,0,1,0,1.76H30.23m0-.61H0A4.16,4.16,0,0,0-4.16,5.32V35.24A4.16,4.16,0,0,0,0,39.39H30.23a4.16,4.16,0,0,0,4.16-4.16V5.32a4.16,4.16,0,0,0-4.16-4.16Z"/></g><g id="glossary"><path class="cls-6" d="M3.79,26.64H7.37a1.47,1.47,0,1,0,0-2.93H3.79a1.47,1.47,0,1,0,0,2.93Z"/><path class="cls-6" d="M3.79,16.29H7.37a1.47,1.47,0,1,0,0-2.93H3.79a1.47,1.47,0,1,0,0,2.93Z"/><path class="cls-7" d="M26.77,4.79H9.06A3.67,3.67,0,0,0,5.4,8.44v3.83H7.64a2.56,2.56,0,0,1,0,5.11H5.4v5.24H7.64a2.55,2.55,0,0,1,0,5.11H5.4v3.83a3.66,3.66,0,0,0,3.65,3.65H26.77a3.66,3.66,0,0,0,3.66-3.65V8.44A3.67,3.67,0,0,0,26.77,4.79Z"/><path class="cls-6" d="M26.77,5.79a2.66,2.66,0,0,1,2.66,2.65V31.55a2.66,2.66,0,0,1-2.66,2.65H9.06A2.66,2.66,0,0,1,6.4,31.55V28.73H7.64a3.55,3.55,0,0,0,0-7.11H6.4V18.38H7.64a3.56,3.56,0,0,0,0-7.11H6.4V8.44A2.66,2.66,0,0,1,9.06,5.79H26.77m0-.5H9.06A3.16,3.16,0,0,0,5.9,8.44v3.33H7.64a3.06,3.06,0,0,1,0,6.11H5.9v4.24H7.64a3.05,3.05,0,0,1,0,6.11H5.9v3.33a3.16,3.16,0,0,0,3.15,3.15H26.77a3.16,3.16,0,0,0,3.16-3.15V8.44a3.16,3.16,0,0,0-3.16-3.15Z"/><path class="cls-8" d="M21.19,15.81l-.46-1.2H16.85l-.46,1.22a4.2,4.2,0,0,1-.46,1,.72.72,0,0,1-.62.25.91.91,0,0,1-.64-.27.82.82,0,0,1-.28-.61,1.36,1.36,0,0,1,.06-.4c0-.14.12-.33.21-.58L17.12,9l.25-.64a3.28,3.28,0,0,1,.31-.62,1.26,1.26,0,0,1,.44-.4,1.54,1.54,0,0,1,1.34,0,1.29,1.29,0,0,1,.44.39,2.77,2.77,0,0,1,.28.52q.11.28.29.74L23,15.15a3.08,3.08,0,0,1,.29,1,.84.84,0,0,1-.28.61.91.91,0,0,1-.67.28.87.87,0,0,1-.39-.08.81.81,0,0,1-.27-.22,2.09,2.09,0,0,1-.24-.43Zm-3.83-2.65h2.85L18.77,9.23Z"/><path class="cls-8" d="M14.83,30.65l4.9-5.86H15.52a1,1,0,0,1-.67-.2.65.65,0,0,1-.22-.51.7.7,0,0,1,.22-.54,1,1,0,0,1,.67-.2h5.42q1.05,0,1.05,1a1.39,1.39,0,0,1-.17.75,9,9,0,0,1-.71.9l-4.58,5.45h5a1,1,0,0,1,.67.19.64.64,0,0,1,.22.52.7.7,0,0,1-.22.55,1,1,0,0,1-.67.2H15.39a1.39,1.39,0,0,1-.95-.28,1,1,0,0,1-.32-.76.87.87,0,0,1,.05-.3,1.14,1.14,0,0,1,.14-.26l.24-.3Z"/><path class="cls-8" d="M14.46,21.46h8.45a1.47,1.47,0,0,0,0-2.93H14.46a1.47,1.47,0,1,0,0,2.93Z"/></g></g></svg>