<svg xmlns="http://www.w3.org/2000/svg" xmlns:xlink="http://www.w3.org/1999/xlink" viewBox="0 0 35 40"><defs><style>.cls-1{fill:none;}.cls-2{clip-path:url(#clip-path);}.cls-3{fill:url(#linear-gradient);}.cls-4{fill:url(#linear-gradient-2);}.cls-5{fill:url(#linear-gradient-3);}.cls-6{fill:#016bae;}.cls-7{fill:#fff;}</style><clipPath id="clip-path"><rect class="cls-1" width="35" height="40"/></clipPath><linearGradient id="linear-gradient" x1="15.12" y1="40" x2="15.12" gradientUnits="userSpaceOnUse"><stop offset="0" stop-color="#00529b"/><stop offset="0.51" stop-color="#27aae1"/></linearGradient><linearGradient id="linear-gradient-2" x1="32.64" y1="50.23" x2="2.85" y2="-1.16" gradientUnits="userSpaceOnUse"><stop offset="0" stop-color="#016bae"/><stop offset="0.49" stop-color="#7ed2f1"/><stop offset="1" stop-color="#fff"/></linearGradient><linearGradient id="linear-gradient-3" x1="15.12" y1="39.39" x2="15.12" y2="1.15" gradientUnits="userSpaceOnUse"><stop offset="0.12" stop-color="#27aae1"/><stop offset="1" stop-color="#00529b"/></linearGradient></defs><title>35X40</title><g id="_35x40_tabs_-_Cognizen" data-name="35x40 tabs - Cognizen"><g class="cls-2"><path class="cls-3" d="M30.23.61a4.16,4.16,0,0,1,4.16,4.16V35.24a4.16,4.16,0,0,1-4.16,4.16H0a4.16,4.16,0,0,1-4.16-4.16V4.77A4.16,4.16,0,0,1,0,.61H30.23m0-.61H0A4.77,4.77,0,0,0-4.77,4.77V35.24A4.77,4.77,0,0,0,0,40H30.23A4.77,4.77,0,0,0,35,35.24V4.77A4.77,4.77,0,0,0,30.23,0Z"/><rect class="cls-4" x="-4.16" y="0.61" width="38.55" height="38.79" rx="4.16" ry="4.16"/><path class="cls-5" d="M30.23,1.76a3.56,3.56,0,0,1,3.55,3.55V35.24a3.56,3.56,0,0,1-3.55,3.55H0a3.56,3.56,0,0,1-3.55-3.55V5.32A3.56,3.56,0,0,1,0,1.76H30.23m0-.61H0A4.16,4.16,0,0,0-4.16,5.32V35.24A4.16,4.16,0,0,0,0,39.39H30.23a4.16,4.16,0,0,0,4.16-4.16V5.32a4.16,4.16,0,0,0-4.16-4.16Z"/></g><g id="index"><rect class="cls-6" x="11.02" y="9.07" width="20.35" height="3.77"/><rect class="cls-7" x="11.02" y="8.92" width="19.6" height="3.02"/><rect class="cls-6" x="11.02" y="18.13" width="20.35" height="3.77"/><rect class="cls-7" x="11.02" y="17.98" width="19.6" height="3.02"/><rect class="cls-6" x="11.02" y="27.18" width="20.35" height="3.77"/><rect class="cls-7" x="11.02" y="27.03" width="19.6" height="3.02"/><path class="cls-6" d="M5.74,31.71A2.72,2.72,0,1,1,8.45,29a2.72,2.72,0,0,1-2.72,2.72Zm0-4.53A1.81,1.81,0,1,0,7.55,29a1.81,1.81,0,0,0-1.81-1.81Z"/><circle class="cls-6" cx="5.74" cy="28.99" r="2.26"/><path class="cls-6" d="M5.74,22.65a2.72,2.72,0,1,1,2.72-2.72,2.72,2.72,0,0,1-2.72,2.72Zm0-4.53a1.81,1.81,0,1,0,1.81,1.81,1.81,1.81,0,0,0-1.81-1.81Z"/><circle class="cls-6" cx="5.74" cy="19.94" r="2.26"/><path class="cls-6" d="M5.74,13.6a2.72,2.72,0,1,1,2.72-2.71A2.72,2.72,0,0,1,5.74,13.6Zm0-4.53a1.81,1.81,0,1,0,1.81,1.81A1.81,1.81,0,0,0,5.74,9.07Z"/><circle class="cls-6" cx="5.74" cy="10.88" r="2.26"/></g></g></svg>