<?xml version="1.0" encoding="utf-8"?>
<!-- Generator: Adobe Illustrator 19.1.0, SVG Export Plug-In . SVG Version: 6.00 Build 0)  -->
<svg version="1.1" xmlns="http://www.w3.org/2000/svg" xmlns:xlink="http://www.w3.org/1999/xlink" x="0px" y="0px"
	 viewBox="0 0 18 18" enable-background="new 0 0 18 18" xml:space="preserve">
<g id="testing" display="none">
	<g id="index_1_">
	</g>
	<g id="_x33_5x40_tabs_gold">
		<g id="button_2_" display="inline">
		</g>
		<g id="index_2">
		</g>
		<g id="index">
		</g>
		<g id="glossary">
		</g>
		<g id="help_1_" display="inline">
		</g>
	</g>
	<g id="_x32_0x20_editing_dark">
		<g id="button_1_" display="inline">
		</g>
		<g id="drop_audio" display="inline">
		</g>
	</g>
</g>
<g id="_x31_8x18_dashboard">
	<g id="misc">
		<g id="delete_course_1_" display="none">
			<g display="inline">
				<g>
					<path fill="#474647" d="M16.1,6.9c0-0.4-0.3-0.7-0.7-0.7l-12.9,0c-0.4,0-0.7,0.3-0.7,0.7l0,4.2c0,0.4,0.3,0.7,0.7,0.7l12.9,0
						c0.4,0,0.7-0.3,0.7-0.7L16.1,6.9z"/>
				</g>
			</g>
		</g>
		<g id="add_course" display="none">
			<g display="inline">
				<g>
					<linearGradient id="SVGID_1_" gradientUnits="userSpaceOnUse" x1="9" y1="17.75" x2="9" y2="0.25">
						<stop  offset="0" style="stop-color:#4E9BD4"/>
						<stop  offset="0.202" style="stop-color:#7DD2F1"/>
					</linearGradient>
					<path fill="url(#SVGID_1_)" d="M6.4,17.7c-0.3,0-0.6-0.3-0.6-0.6l0-3.7c0-0.6-0.5-1.1-1.1-1.1l-3.7,0c-0.3,0-0.6-0.3-0.6-0.6
						l0-5.3c0-0.3,0.3-0.6,0.6-0.6l3.7,0c0.6,0,1.1-0.5,1.1-1.1l0-3.7c0-0.2,0.1-0.3,0.2-0.4C6,0.3,6.2,0.2,6.4,0.2l5.3,0
						c0.2,0,0.3,0.1,0.4,0.2c0.1,0.1,0.2,0.3,0.2,0.4l0,3.7c0,0.3,0.1,0.6,0.3,0.8c0.2,0.2,0.5,0.3,0.8,0.3l3.7,0
						c0.2,0,0.3,0.1,0.4,0.2c0.1,0.1,0.2,0.3,0.2,0.4l0,5.3c0,0.2-0.1,0.3-0.2,0.4c-0.1,0.1-0.3,0.2-0.4,0.2l-3.7,0
						c-0.6,0-1.1,0.5-1.1,1.1l0,3.7c0,0.2-0.1,0.3-0.2,0.4c-0.1,0.1-0.3,0.2-0.4,0.2l0,0L6.4,17.7z"/>
					<path fill="#474647" d="M6.4,0.5L6.4,0.5l5.3,0c0.1,0,0.2,0,0.3,0.1C12,0.7,12,0.8,12,0.9l0,3.7c0,0.4,0.1,0.7,0.4,1
						C12.7,5.8,13,6,13.4,6h0l3.7,0c0.1,0,0.2,0,0.3,0.1c0.1,0.1,0.1,0.2,0.1,0.3l0,5.3c0,0.2-0.2,0.4-0.4,0.4l-3.7,0
						c-0.8,0-1.4,0.6-1.4,1.4l0,3.7c0,0.1,0,0.2-0.1,0.3c-0.1,0.1-0.2,0.1-0.3,0.1l-5.3,0c-0.2,0-0.4-0.2-0.4-0.4l0-3.7
						C6,12.6,5.4,12,4.6,12l-3.7,0c-0.2,0-0.4-0.2-0.4-0.4l0-5.3C0.5,6.2,0.7,6,0.9,6l3.7,0C5.4,6,6,5.4,6,4.6l0-3.7
						c0-0.1,0-0.2,0.1-0.3C6.2,0.5,6.3,0.5,6.4,0.5 M6.4,0C5.9,0,5.5,0.4,5.5,0.9l0,3.7c0,0.5-0.4,0.9-0.9,0.9l-3.7,0c0,0,0,0,0,0
						C0.4,5.5,0,5.9,0,6.4l0,5.3c0,0.5,0.4,0.9,0.9,0.9l3.7,0c0.5,0,0.9,0.4,0.9,0.9l0,3.7c0,0.5,0.4,0.9,0.9,0.9h0l5.3,0
						c0.5,0,0.9-0.4,0.9-0.9l0-3.7c0-0.5,0.4-0.9,0.9-0.9c0,0,0,0,0,0l3.7,0c0,0,0,0,0,0c0.5,0,0.9-0.4,0.9-0.9l0-5.3
						c0-0.5-0.4-0.9-0.9-0.9l-3.7,0c0,0,0,0,0,0c-0.5,0-0.9-0.4-0.9-0.9l0-3.7c0-0.5-0.4-0.9-0.9-0.9h0L6.4,0L6.4,0z"/>
				</g>
			</g>
		</g>
		<g id="manage_users" display="none">
			<g id="manage_users_1_" display="inline">
				<g>
					<linearGradient id="SVGID_2_" gradientUnits="userSpaceOnUse" x1="13.6157" y1="6.2759" x2="13.6157" y2="1.8164">
						<stop  offset="0" style="stop-color:#4E9BD4"/>
						<stop  offset="0.202" style="stop-color:#7DD2F1"/>
					</linearGradient>
					<circle fill="url(#SVGID_2_)" cx="13.6" cy="4" r="2.2"/>
					<path fill="#474647" d="M13.6,2.1c1.1,0,2,0.9,2,2c0,1.1-0.9,2-2,2c-1.1,0-2-0.9-2-2C11.6,3,12.5,2.1,13.6,2.1 M13.6,1.6
						c-1.4,0-2.5,1.1-2.5,2.5c0,1.4,1.1,2.5,2.5,2.5c1.4,0,2.5-1.1,2.5-2.5C16.1,2.7,15,1.6,13.6,1.6L13.6,1.6z"/>
				</g>
				<g>
					<linearGradient id="SVGID_3_" gradientUnits="userSpaceOnUse" x1="13.646" y1="13.7939" x2="13.646" y2="6.8335">
						<stop  offset="0" style="stop-color:#4E9BD4"/>
						<stop  offset="0.202" style="stop-color:#7DD2F1"/>
					</linearGradient>
					<path fill="url(#SVGID_3_)" d="M13.6,13.8c-1.6,0-3.1-0.7-4-1.8c0-0.2-0.1-0.5-0.1-0.8c0-1.9,1-3.7,2.5-4.4l1.6,1.9l1.6-1.9
						c1.5,0.8,2.5,2.5,2.5,4.4c0,0.3,0,0.5-0.1,0.8C16.8,13.1,15.3,13.8,13.6,13.8z"/>
					<path fill="#474647" d="M15.3,7.1c1.3,0.8,2.2,2.4,2.2,4.1c0,0.2,0,0.4,0,0.7c-0.9,1-2.3,1.6-3.8,1.6c-1.5,0-2.9-0.6-3.8-1.6
						c0-0.2,0-0.5,0-0.7c0-1.7,0.9-3.3,2.2-4.1l1.3,1.5l0.4,0.4L14,8.7L15.3,7.1 M15.2,6.5l-1.6,1.8l-1.6-1.8
						c-1.6,0.7-2.8,2.6-2.8,4.7c0,0.3,0,0.6,0.1,0.9c0.9,1.2,2.5,1.9,4.3,1.9c1.8,0,3.4-0.8,4.3-1.9c0-0.3,0.1-0.6,0.1-0.9
						C18,9.1,16.8,7.3,15.2,6.5L15.2,6.5z"/>
				</g>
			</g>
			<g display="inline">
				<g>
					<linearGradient id="SVGID_4_" gradientUnits="userSpaceOnUse" x1="6.021" y1="6.6553" x2="6.021" y2="0.25">
						<stop  offset="0" style="stop-color:#4E9BD4"/>
						<stop  offset="0.202" style="stop-color:#7DD2F1"/>
					</linearGradient>
					<path fill="url(#SVGID_4_)" d="M6,6.7c-1.8,0-3.2-1.4-3.2-3.2c0-1.8,1.4-3.2,3.2-3.2c1.8,0,3.2,1.4,3.2,3.2
						C9.2,5.2,7.8,6.7,6,6.7z"/>
					<path fill="#474647" d="M6,0.5c1.6,0,3,1.3,3,3c0,1.6-1.3,3-3,3c-1.6,0-3-1.3-3-3C3.1,1.8,4.4,0.5,6,0.5 M6,0
						C4.1,0,2.6,1.5,2.6,3.5c0,1.9,1.5,3.5,3.5,3.5c1.9,0,3.5-1.5,3.5-3.5C9.5,1.5,7.9,0,6,0L6,0z"/>
				</g>
				<g>
					<linearGradient id="SVGID_5_" gradientUnits="userSpaceOnUse" x1="6.0625" y1="17.75" x2="6.0625" y2="7.8394">
						<stop  offset="0" style="stop-color:#4E9BD4"/>
						<stop  offset="0.202" style="stop-color:#7DD2F1"/>
					</linearGradient>
					<path fill="url(#SVGID_5_)" d="M6.1,17.8c-2.3,0-4.4-0.9-5.7-2.5c-0.1-0.4-0.1-0.8-0.1-1.1c0-2.7,1.4-5.2,3.6-6.3L6,10.5
						l2.2-2.6c2.2,1,3.6,3.5,3.6,6.3c0,0.3,0,0.7-0.1,1.1C10.5,16.8,8.4,17.8,6.1,17.8z"/>
					<path fill="#474647" d="M8.3,8.2c2,1.1,3.3,3.4,3.3,6c0,0.3,0,0.6-0.1,1c-1.2,1.5-3.3,2.4-5.5,2.4c-2.2,0-4.2-0.9-5.5-2.4
						c0-0.4-0.1-0.7-0.1-1c0-2.6,1.3-4.9,3.3-5.9l1.9,2.2L6,10.8l0.4-0.4L8.3,8.2 M8.2,7.5L6,10.1L3.9,7.5C1.6,8.6,0,11.1,0,14.1
						c0,0.4,0,0.8,0.1,1.2c1.3,1.6,3.5,2.7,6,2.7c2.5,0,4.7-1.1,6-2.7c0.1-0.4,0.1-0.8,0.1-1.2C12.1,11.1,10.5,8.5,8.2,7.5L8.2,7.5z
						"/>
				</g>
			</g>
		</g>
		<g id="manage_users_2_" display="none">
			<g display="inline">
				<linearGradient id="SVGID_6_" gradientUnits="userSpaceOnUse" x1="9.0542" y1="8.1875" x2="9.0542" y2="3.0136">
					<stop  offset="0" style="stop-color:#4E9BD4"/>
					<stop  offset="0.202" style="stop-color:#7DD2F1"/>
				</linearGradient>
				<circle fill="url(#SVGID_6_)" stroke="#474647" stroke-width="0.5" stroke-miterlimit="10" cx="9.1" cy="5.6" r="2.6"/>
				<linearGradient id="SVGID_7_" gradientUnits="userSpaceOnUse" x1="9.0858" y1="16.5" x2="9.0858" y2="8.6573">
					<stop  offset="0" style="stop-color:#4E9BD4"/>
					<stop  offset="0.202" style="stop-color:#7DD2F1"/>
				</linearGradient>
				<path fill="url(#SVGID_7_)" stroke="#474647" stroke-width="0.5" stroke-miterlimit="10" d="M10.7,8.7l-1.6,1.9L7.5,8.7
					c-1.7,0.8-2.9,2.7-2.9,4.9c0,0.3,0,0.6,0.1,0.9c1,1.2,2.6,2,4.5,2c1.9,0,3.5-0.8,4.5-2c0-0.3,0.1-0.6,0.1-0.9
					C13.6,11.3,12.4,9.4,10.7,8.7z"/>
			</g>
			<g display="inline">
				<g>
					<linearGradient id="SVGID_8_" gradientUnits="userSpaceOnUse" x1="13.8152" y1="1.3191" x2="13.8152" y2="6.1058">
						<stop  offset="0" style="stop-color:#A5ADB5"/>
						<stop  offset="0.2221" style="stop-color:#9CA3AB"/>
						<stop  offset="0.5448" style="stop-color:#888D94"/>
						<stop  offset="0.9274" style="stop-color:#6C6F75"/>
						<stop  offset="1" style="stop-color:#66696F"/>
					</linearGradient>
					<path fill="url(#SVGID_8_)" d="M13.8,1.3c-1.1,0-2,0.8-2.3,1.8c0.7,0.6,1.1,1.5,1.1,2.5c0,0,0,0.1,0,0.1
						c0.4,0.2,0.8,0.4,1.2,0.4c1.3,0,2.4-1.1,2.4-2.4C16.2,2.4,15.1,1.3,13.8,1.3z"/>
				</g>
				<g>
					<linearGradient id="SVGID_9_" gradientUnits="userSpaceOnUse" x1="4.1524" y1="1.3191" x2="4.1524" y2="6.1058">
						<stop  offset="0" style="stop-color:#A5ADB5"/>
						<stop  offset="0.2221" style="stop-color:#9CA3AB"/>
						<stop  offset="0.5448" style="stop-color:#888D94"/>
						<stop  offset="0.9274" style="stop-color:#6C6F75"/>
						<stop  offset="1" style="stop-color:#66696F"/>
					</linearGradient>
					<path fill="url(#SVGID_9_)" d="M5.6,5.6c0-0.9,0.4-1.8,0.9-2.4C6.3,2.1,5.3,1.3,4.2,1.3c-1.3,0-2.4,1.1-2.4,2.4
						c0,1.3,1.1,2.4,2.4,2.4C4.7,6.1,5.2,5.9,5.6,5.6C5.6,5.6,5.6,5.6,5.6,5.6z"/>
				</g>
				<g>
					<linearGradient id="SVGID_10_" gradientUnits="userSpaceOnUse" x1="14.7544" y1="6.5401" x2="14.7544" y2="13.7486">
						<stop  offset="0" style="stop-color:#A5ADB5"/>
						<stop  offset="0.2221" style="stop-color:#9CA3AB"/>
						<stop  offset="0.5448" style="stop-color:#888D94"/>
						<stop  offset="0.9274" style="stop-color:#6C6F75"/>
						<stop  offset="1" style="stop-color:#66696F"/>
					</linearGradient>
					<path fill="url(#SVGID_10_)" d="M15.3,6.5l-1.5,1.8l-1.4-1.7c-0.2,0.5-0.5,1-0.9,1.4c1.8,1,3,3.1,3,5.5c0,0.1,0,0.1,0,0.2
						c1.4-0.2,2.7-0.9,3.4-1.8c0-0.3,0.1-0.6,0.1-0.8C18,9,16.9,7.2,15.3,6.5z"/>
				</g>
				<g>
					<linearGradient id="SVGID_11_" gradientUnits="userSpaceOnUse" x1="3.3166" y1="6.5401" x2="3.3166" y2="13.7663">
						<stop  offset="0" style="stop-color:#A5ADB5"/>
						<stop  offset="0.2221" style="stop-color:#9CA3AB"/>
						<stop  offset="0.5448" style="stop-color:#888D94"/>
						<stop  offset="0.9274" style="stop-color:#6C6F75"/>
						<stop  offset="1" style="stop-color:#66696F"/>
					</linearGradient>
					<path fill="url(#SVGID_11_)" d="M3.6,13.6c0-2.4,1.2-4.5,3-5.5C6.2,7.7,5.9,7.1,5.7,6.5l0,0L4.2,8.3L2.7,6.5
						C1.1,7.3,0,9,0,11.1c0,0.3,0,0.6,0.1,0.8c0.8,1,2.1,1.7,3.6,1.8C3.7,13.7,3.6,13.6,3.6,13.6z"/>
				</g>
			</g>
		</g>
	</g>
	<g id="no_outline">
		<g id="manage_users_3_" display="none">
			<g display="inline">
				<linearGradient id="SVGID_13_" gradientUnits="userSpaceOnUse" x1="8.9578" y1="6.9055" x2="8.9578" y2="0">
					<stop  offset="0" style="stop-color:#4E9BD4"/>
					<stop  offset="0.202" style="stop-color:#7DD2F1"/>
				</linearGradient>
				<circle fill="url(#SVGID_13_)" cx="9" cy="3.5" r="3.5"/>
				<linearGradient id="SVGID_14_" gradientUnits="userSpaceOnUse" x1="9" y1="18" x2="9" y2="7.5325">
					<stop  offset="0" style="stop-color:#4E9BD4"/>
					<stop  offset="0.202" style="stop-color:#7DD2F1"/>
				</linearGradient>
				<path fill="url(#SVGID_14_)" d="M11.2,7.5L9,10.1L6.8,7.5c-2.3,1-3.9,3.6-3.9,6.6c0,0.4,0,0.8,0.1,1.2C4.3,16.9,6.5,18,9,18
					c2.5,0,4.7-1.1,6-2.7c0.1-0.4,0.1-0.8,0.1-1.2C15.1,11.1,13.4,8.5,11.2,7.5z"/>
			</g>
		</g>
		<g id="add_course_2_">
			<g>
				<linearGradient id="SVGID_15_" gradientUnits="userSpaceOnUse" x1="9" y1="18.0009" x2="9" y2="9.063740e-04">
					<stop  offset="0" style="stop-color:#4E9BD4"/>
					<stop  offset="0.202" style="stop-color:#7DD2F1"/>
				</linearGradient>
				<circle fill="url(#SVGID_15_)" cx="9" cy="9" r="9"/>
			</g>
			<g>
				<path fill="#FFFFFF" d="M14.4,7.4h-3.7V3.7C10.7,2.8,9.9,2,9,2S7.3,2.8,7.3,3.7v3.7H3.6c-0.9,0-1.7,0.8-1.7,1.7
					c0,0.9,0.8,1.7,1.7,1.7h3.7v3.7c0,0.9,0.8,1.7,1.7,1.7s1.7-0.8,1.7-1.7v-3.7h3.7c0.9,0,1.7-0.8,1.7-1.7
					C16.1,8.2,15.3,7.4,14.4,7.4z"/>
			</g>
		</g>
		<g id="delete_course_2_" display="none">
			<g display="inline">
				<linearGradient id="SVGID_16_" gradientUnits="userSpaceOnUse" x1="9" y1="18.0009" x2="9" y2="9.063740e-04">
					<stop  offset="0" style="stop-color:#4E9BD4"/>
					<stop  offset="0.202" style="stop-color:#7DD2F1"/>
				</linearGradient>
				<circle fill="url(#SVGID_16_)" cx="9" cy="9" r="9"/>
			</g>
			<g display="inline">
				<path fill="#FFFFFF" d="M14.4,7.4H3.6c-0.9,0-1.7,0.8-1.7,1.7c0,0.9,0.8,1.7,1.7,1.7h10.7c0.9,0,1.7-0.8,1.7-1.7
					C16.1,8.2,15.3,7.4,14.4,7.4z"/>
			</g>
		</g>
		<g id="preferences_2_" display="none">
			<linearGradient id="SVGID_17_" gradientUnits="userSpaceOnUse" x1="9" y1="17.75" x2="9" y2="0.2466">
				<stop  offset="0" style="stop-color:#4E9BD4"/>
				<stop  offset="0.202" style="stop-color:#7DD2F1"/>
			</linearGradient>
			<path display="inline" fill="url(#SVGID_17_)" d="M7.1,17.8V14L7,13.9l-0.2,0l-2.7,2.7l-2.6-2.6l2.7-2.7L4.1,11l0-0.2l-3.8,0V7.1
				H4L4.1,7l0.1-0.2L4.1,6.7L1.5,4.1l2.6-2.6l2.7,2.7L7.1,4l0-0.1V0.2h3.7V4l0.3,0.1L11.3,4l2.6-2.6l2.6,2.6l-2.7,2.7L13.9,7L14,7.1
				l3.8,0v3.7H14L13.9,11l-0.2,0.2l0.2,0.1l2.6,2.6l-2.6,2.6l-2.7-2.7l-0.1,0L11,14l-0.1,0.2v3.6H7.1z M9,5.3C7,5.3,5.3,7,5.3,9
				c0,2,1.6,3.7,3.7,3.7S12.7,11,12.7,9C12.7,7,11,5.3,9,5.3z"/>
			<path display="inline" fill="#9BA4AB" d="M10.6,0.5v3.4l0,0.3l0.3,0.1l0.3,0.1l0.2-0.2l2.4-2.4l2.3,2.3l-2.4,2.4l-0.2,0.2L13.7,7
				l0.1,0.3h0.4h3.4v3.2h-3.4h-0.4l-0.1,0.3l-0.2,0.3l0.3,0.3l2.4,2.4l-2.3,2.3l-2.4-2.4l-0.2-0.2L11,13.6l-0.1,0l0,0l-0.3,0.1v0.3
				v3.4H7.4v-3.4v-0.3l-0.2-0.1l-0.1,0l0,0l-0.3-0.1l-0.3,0.3l-2.4,2.4l-2.3-2.3l2.4-2.4l0.3-0.3l-0.2-0.3l-0.1-0.3H3.9H0.5V7.4h3.4
				h0.3l0.1-0.2l0,0l0,0l0.1-0.3L4.2,6.5L1.8,4.1l2.3-2.3l2.4,2.4l0.3,0.3l0.3-0.2l0.3-0.1V3.9V0.5H10.6 M9,12.9
				c2.2,0,3.9-1.8,3.9-3.9c0-2.2-1.8-3.9-3.9-3.9C6.8,5.1,5.1,6.8,5.1,9C5.1,11.2,6.8,12.9,9,12.9 M11.1,0H6.9v3.9c0,0,0,0,0,0
				L4.1,1.1l-3,3l2.7,2.7c0,0,0,0,0,0H0v4.2h3.9c0,0,0,0,0,0l-2.7,2.7l3,3l2.7-2.7c0,0,0,0,0,0V18h4.2v-3.9c0,0,0,0,0,0l2.7,2.7l3-3
				l-2.7-2.7c0,0,0,0,0,0H18V6.9h-3.9c0,0,0,0,0,0l2.7-2.7l-3-3l-2.7,2.7c0,0,0,0,0,0V0L11.1,0z M9,12.4c-1.9,0-3.4-1.5-3.4-3.4
				c0-1.9,1.5-3.4,3.4-3.4c1.9,0,3.4,1.5,3.4,3.4C12.4,10.9,10.9,12.4,9,12.4L9,12.4z"/>
		</g>
		<g id="outline_view_1_" display="none">
			<linearGradient id="SVGID_18_" gradientUnits="userSpaceOnUse" x1="6.5554" y1="2.5441" x2="6.5554" y2="0.252">
				<stop  offset="0" style="stop-color:#4E9BD4"/>
				<stop  offset="0.202" style="stop-color:#7DD2F1"/>
			</linearGradient>
			<path display="inline" fill="url(#SVGID_18_)" d="M12.9,1.4c0,0.6-0.5,1.1-1.1,1.1H1.4C0.8,2.5,0.3,2,0.3,1.4l0,0
				c0-0.6,0.5-1.1,1.1-1.1h10.3C12.3,0.3,12.9,0.8,12.9,1.4L12.9,1.4z"/>
			<linearGradient id="SVGID_19_" gradientUnits="userSpaceOnUse" x1="9" y1="7.6088" x2="9" y2="5.3167">
				<stop  offset="0" style="stop-color:#4E9BD4"/>
				<stop  offset="0.202" style="stop-color:#7DD2F1"/>
			</linearGradient>
			<path display="inline" fill="url(#SVGID_19_)" d="M15.3,6.5c0,0.6-0.5,1.1-1.1,1.1H3.8c-0.6,0-1.1-0.5-1.1-1.1l0,0
				c0-0.6,0.5-1.1,1.1-1.1h10.3C14.8,5.3,15.3,5.8,15.3,6.5L15.3,6.5z"/>
			<linearGradient id="SVGID_20_" gradientUnits="userSpaceOnUse" x1="11.4446" y1="12.6734" x2="11.4446" y2="10.3813">
				<stop  offset="0" style="stop-color:#4E9BD4"/>
				<stop  offset="0.202" style="stop-color:#7DD2F1"/>
			</linearGradient>
			<path display="inline" fill="url(#SVGID_20_)" d="M17.7,11.5c0,0.6-0.5,1.1-1.1,1.1H6.3c-0.6,0-1.1-0.5-1.1-1.1l0,0
				c0-0.6,0.5-1.1,1.1-1.1h10.3C17.2,10.4,17.7,10.9,17.7,11.5L17.7,11.5z"/>
			<linearGradient id="SVGID_21_" gradientUnits="userSpaceOnUse" x1="6.5554" y1="17.7381" x2="6.5554" y2="15.446">
				<stop  offset="0" style="stop-color:#4E9BD4"/>
				<stop  offset="0.202" style="stop-color:#7DD2F1"/>
			</linearGradient>
			<path display="inline" fill="url(#SVGID_21_)" d="M12.9,16.6c0,0.6-0.5,1.1-1.1,1.1H1.4c-0.6,0-1.1-0.5-1.1-1.1l0,0
				c0-0.6,0.5-1.1,1.1-1.1h10.3C12.3,15.4,12.9,16,12.9,16.6L12.9,16.6z"/>
		</g>
		<g id="search_1_" display="none">
			<circle display="inline" fill="#FFFFFF" cx="7.7" cy="7" r="5.2"/>
			<g display="inline">
				<linearGradient id="SVGID_22_" gradientUnits="userSpaceOnUse" x1="9" y1="17.9875" x2="9" y2="5.911716e-11">
					<stop  offset="0" style="stop-color:#4E9BD4"/>
					<stop  offset="0.202" style="stop-color:#7DD2F1"/>
				</linearGradient>
				<path fill="url(#SVGID_22_)" d="M16.8,14.4l-3.2-3.6c0.6-0.9,1-2,1.1-3.2c0.2-1.9-0.4-3.7-1.6-5.1C11.8,1.1,10.2,0.2,8.3,0
					C4.5-0.3,1.1,2.5,0.7,6.4c-0.2,1.9,0.4,3.7,1.6,5.1c1.2,1.4,2.9,2.3,4.7,2.5c1.1,0.1,2.2-0.1,3.1-0.4l3.3,3.7
					c0.4,0.4,0.9,0.7,1.5,0.8c0.6,0,1.1-0.1,1.6-0.5C17.5,16.7,17.6,15.3,16.8,14.4z M12.9,7.4c-0.3,2.9-2.8,5-5.7,4.7
					c-2.9-0.3-5-2.8-4.7-5.7c0.2-2.9,2.8-5,5.7-4.7C11,2,13.1,4.6,12.9,7.4z M8.1,2.7c-0.1,0-0.2,0-0.4,0c-1,0-1.8,0.3-2.5,0.9
					C5,3.7,4.9,4,5.1,4.1c0.1,0.2,0.4,0.2,0.6,0.1c0.6-0.4,1.3-0.7,2-0.7c0.1,0,0.2,0,0.3,0C8.9,3.6,9.7,4,10.2,4.7
					c0.2,0.2,0.5,0.1,0.6,0c0.2-0.1,0.2-0.4,0-0.6C10.2,3.3,9.2,2.8,8.1,2.7z"/>
			</g>
		</g>
	</g>
	<g id="outline" display="none">
		<g id="delete_course">
			<g display="inline">
				<linearGradient id="SVGID_23_" gradientUnits="userSpaceOnUse" x1="9" y1="17.751" x2="9" y2="0.251">
					<stop  offset="0" style="stop-color:#4E9BD4"/>
					<stop  offset="0.202" style="stop-color:#7DD2F1"/>
				</linearGradient>
				<path fill="url(#SVGID_23_)" d="M9,17.8c-4.8,0-8.8-3.9-8.8-8.8c0-4.8,3.9-8.8,8.8-8.8s8.8,3.9,8.8,8.8
					C17.8,13.8,13.8,17.8,9,17.8z"/>
				<path fill="#9BA4AB" d="M9,0.5c4.7,0,8.5,3.8,8.5,8.5s-3.8,8.5-8.5,8.5S0.5,13.7,0.5,9S4.3,0.5,9,0.5 M9,0C4,0,0,4,0,9s4,9,9,9
					s9-4,9-9S14,0,9,0L9,0z"/>
			</g>
			<g display="inline">
				<path fill="#FFFFFF" d="M3.6,10.5c-0.8,0-1.4-0.6-1.4-1.4s0.6-1.4,1.4-1.4h10.7c0.8,0,1.4,0.6,1.4,1.4s-0.6,1.4-1.4,1.4H3.6z"/>
				<path fill="#9BA4AB" d="M14.4,7.9c0.7,0,1.2,0.5,1.2,1.2c0,0.7-0.5,1.2-1.2,1.2H3.6c-0.7,0-1.2-0.5-1.2-1.2
					c0-0.7,0.5-1.2,1.2-1.2H14.4 M14.4,7.4H3.6c-0.9,0-1.7,0.8-1.7,1.7c0,0.9,0.8,1.7,1.7,1.7h10.7c0.9,0,1.7-0.8,1.7-1.7
					C16.1,8.2,15.3,7.4,14.4,7.4L14.4,7.4z"/>
			</g>
		</g>
		<g id="add_course_1_">
			<g display="inline">
				<linearGradient id="SVGID_24_" gradientUnits="userSpaceOnUse" x1="9" y1="17.751" x2="9" y2="0.251">
					<stop  offset="0" style="stop-color:#4E9BD4"/>
					<stop  offset="0.202" style="stop-color:#7DD2F1"/>
				</linearGradient>
				<path fill="url(#SVGID_24_)" d="M9,17.8c-4.8,0-8.8-3.9-8.8-8.8c0-4.8,3.9-8.8,8.8-8.8s8.8,3.9,8.8,8.8
					C17.8,13.8,13.8,17.8,9,17.8z"/>
				<path fill="#9BA4AB" d="M9,0.5c4.7,0,8.5,3.8,8.5,8.5s-3.8,8.5-8.5,8.5S0.5,13.7,0.5,9S4.3,0.5,9,0.5 M9,0C4,0,0,4,0,9s4,9,9,9
					s9-4,9-9S14,0,9,0L9,0z"/>
			</g>
			<g display="inline">
				<path fill="#FFFFFF" d="M9,15.9c-0.8,0-1.4-0.6-1.4-1.4v-3.9H3.6c-0.8,0-1.4-0.6-1.4-1.4s0.6-1.4,1.4-1.4h3.9V3.7
					c0-0.8,0.6-1.4,1.4-1.4s1.4,0.6,1.4,1.4v3.9h3.9c0.8,0,1.4,0.6,1.4,1.4s-0.6,1.4-1.4,1.4h-3.9v3.9C10.4,15.3,9.8,15.9,9,15.9z"
					/>
				<path fill="#9BA4AB" d="M9,2.5c0.7,0,1.2,0.5,1.2,1.2v3.7v0.5h0.5h3.7c0.7,0,1.2,0.5,1.2,1.2c0,0.7-0.5,1.2-1.2,1.2h-3.7h-0.5
					v0.5v3.7c0,0.7-0.5,1.2-1.2,1.2s-1.2-0.5-1.2-1.2v-3.7v-0.5H7.3H3.6c-0.7,0-1.2-0.5-1.2-1.2c0-0.7,0.5-1.2,1.2-1.2h3.7h0.5V7.4
					V3.7C7.8,3.1,8.3,2.5,9,2.5 M9,2C8.1,2,7.3,2.8,7.3,3.7v3.7H3.6c-0.9,0-1.7,0.8-1.7,1.7c0,0.9,0.8,1.7,1.7,1.7h3.7v3.7
					c0,0.9,0.8,1.7,1.7,1.7s1.7-0.8,1.7-1.7v-3.7h3.7c0.9,0,1.7-0.8,1.7-1.7c0-0.9-0.8-1.7-1.7-1.7h-3.7V3.7C10.7,2.8,9.9,2,9,2L9,2
					z"/>
			</g>
		</g>
		<g id="preferences_1_">
			<linearGradient id="SVGID_25_" gradientUnits="userSpaceOnUse" x1="9" y1="17.75" x2="9" y2="0.2466">
				<stop  offset="0" style="stop-color:#4E9BD4"/>
				<stop  offset="0.202" style="stop-color:#7DD2F1"/>
			</linearGradient>
			<path display="inline" fill="url(#SVGID_25_)" d="M7.1,17.8V14L7,13.9l-0.2,0l-2.7,2.7l-2.6-2.6l2.7-2.7L4.1,11l0-0.2l-3.8,0V7.1
				H4L4.1,7l0.1-0.2L4.1,6.7L1.5,4.1l2.6-2.6l2.7,2.7L7.1,4l0-0.1V0.2h3.7V4l0.3,0.1L11.3,4l2.6-2.6l2.6,2.6l-2.7,2.7L13.9,7L14,7.1
				l3.8,0v3.7H14L13.9,11l-0.2,0.2l0.2,0.1l2.6,2.6l-2.6,2.6l-2.7-2.7l-0.1,0L11,14l-0.1,0.2v3.6H7.1z M9,5.3C7,5.3,5.3,7,5.3,9
				c0,2,1.6,3.7,3.7,3.7S12.7,11,12.7,9C12.7,7,11,5.3,9,5.3z"/>
			<path display="inline" fill="#9BA4AB" d="M10.6,0.5v3.4l0,0.3l0.3,0.1l0.3,0.1l0.2-0.2l2.4-2.4l2.3,2.3l-2.4,2.4l-0.2,0.2L13.7,7
				l0.1,0.3h0.4h3.4v3.2h-3.4h-0.4l-0.1,0.3l-0.2,0.3l0.3,0.3l2.4,2.4l-2.3,2.3l-2.4-2.4l-0.2-0.2L11,13.6l-0.1,0l0,0l-0.3,0.1v0.3
				v3.4H7.4v-3.4v-0.3l-0.2-0.1l-0.1,0l0,0l-0.3-0.1l-0.3,0.3l-2.4,2.4l-2.3-2.3l2.4-2.4l0.3-0.3l-0.2-0.3l-0.1-0.3H3.9H0.5V7.4h3.4
				h0.3l0.1-0.2l0,0l0,0l0.1-0.3L4.2,6.5L1.8,4.1l2.3-2.3l2.4,2.4l0.3,0.3l0.3-0.2l0.3-0.1V3.9V0.5H10.6 M9,12.9
				c2.2,0,3.9-1.8,3.9-3.9c0-2.2-1.8-3.9-3.9-3.9C6.8,5.1,5.1,6.8,5.1,9C5.1,11.2,6.8,12.9,9,12.9 M11.1,0H6.9v3.9c0,0,0,0,0,0
				L4.1,1.1l-3,3l2.7,2.7c0,0,0,0,0,0H0v4.2h3.9c0,0,0,0,0,0l-2.7,2.7l3,3l2.7-2.7c0,0,0,0,0,0V18h4.2v-3.9c0,0,0,0,0,0l2.7,2.7l3-3
				l-2.7-2.7c0,0,0,0,0,0H18V6.9h-3.9c0,0,0,0,0,0l2.7-2.7l-3-3l-2.7,2.7c0,0,0,0,0,0V0L11.1,0z M9,12.4c-1.9,0-3.4-1.5-3.4-3.4
				c0-1.9,1.5-3.4,3.4-3.4c1.9,0,3.4,1.5,3.4,3.4C12.4,10.9,10.9,12.4,9,12.4L9,12.4z"/>
		</g>
		<g id="outline_view" display="inline">
			<linearGradient id="SVGID_26_" gradientUnits="userSpaceOnUse" x1="6.5554" y1="2.5441" x2="6.5554" y2="0.252">
				<stop  offset="0" style="stop-color:#4E9BD4"/>
				<stop  offset="0.202" style="stop-color:#7DD2F1"/>
			</linearGradient>
			<path fill="url(#SVGID_26_)" stroke="#9BA4AB" stroke-width="0.5" stroke-miterlimit="10" d="M12.9,1.4c0,0.6-0.5,1.1-1.1,1.1
				H1.4C0.8,2.5,0.3,2,0.3,1.4l0,0c0-0.6,0.5-1.1,1.1-1.1h10.3C12.3,0.3,12.9,0.8,12.9,1.4L12.9,1.4z"/>
			<linearGradient id="SVGID_27_" gradientUnits="userSpaceOnUse" x1="9" y1="7.6088" x2="9" y2="5.3167">
				<stop  offset="0" style="stop-color:#4E9BD4"/>
				<stop  offset="0.202" style="stop-color:#7DD2F1"/>
			</linearGradient>
			<path fill="url(#SVGID_27_)" stroke="#9BA4AB" stroke-width="0.5" stroke-miterlimit="10" d="M15.3,6.5c0,0.6-0.5,1.1-1.1,1.1
				H3.8c-0.6,0-1.1-0.5-1.1-1.1l0,0c0-0.6,0.5-1.1,1.1-1.1h10.3C14.8,5.3,15.3,5.8,15.3,6.5L15.3,6.5z"/>
			<linearGradient id="SVGID_28_" gradientUnits="userSpaceOnUse" x1="11.4446" y1="12.6734" x2="11.4446" y2="10.3813">
				<stop  offset="0" style="stop-color:#4E9BD4"/>
				<stop  offset="0.202" style="stop-color:#7DD2F1"/>
			</linearGradient>
			<path fill="url(#SVGID_28_)" stroke="#9BA4AB" stroke-width="0.5" stroke-miterlimit="10" d="M17.7,11.5c0,0.6-0.5,1.1-1.1,1.1
				H6.3c-0.6,0-1.1-0.5-1.1-1.1l0,0c0-0.6,0.5-1.1,1.1-1.1h10.3C17.2,10.4,17.7,10.9,17.7,11.5L17.7,11.5z"/>
			<linearGradient id="SVGID_29_" gradientUnits="userSpaceOnUse" x1="6.5554" y1="17.7381" x2="6.5554" y2="15.446">
				<stop  offset="0" style="stop-color:#4E9BD4"/>
				<stop  offset="0.202" style="stop-color:#7DD2F1"/>
			</linearGradient>
			<path fill="url(#SVGID_29_)" stroke="#9BA4AB" stroke-width="0.5" stroke-miterlimit="10" d="M12.9,16.6c0,0.6-0.5,1.1-1.1,1.1
				H1.4c-0.6,0-1.1-0.5-1.1-1.1l0,0c0-0.6,0.5-1.1,1.1-1.1h10.3C12.3,15.4,12.9,16,12.9,16.6L12.9,16.6z"/>
		</g>
		<g id="search">
			<circle display="inline" fill="#FFFFFF" cx="7.7" cy="7.1" r="5"/>
			<g display="inline">
				<linearGradient id="SVGID_30_" gradientUnits="userSpaceOnUse" x1="9" y1="17.6076" x2="9" y2="0.3933">
					<stop  offset="0" style="stop-color:#4E9BD4"/>
					<stop  offset="0.202" style="stop-color:#7DD2F1"/>
				</linearGradient>
				<path fill="url(#SVGID_30_)" d="M16.5,14.2l-3.1-3.5c0.6-0.9,0.9-1.9,1-3c0.2-1.8-0.4-3.5-1.5-4.9c-1.2-1.4-2.8-2.2-4.5-2.4
					C4.6,0.1,1.4,2.8,1.1,6.5C0.9,8.3,1.5,10,2.6,11.4c1.2,1.4,2.8,2.2,4.5,2.4c1.1,0.1,2.1-0.1,3-0.4l3.1,3.5
					c0.4,0.4,0.9,0.7,1.4,0.7c0.6,0,1.1-0.1,1.5-0.5C17.1,16.4,17.2,15.1,16.5,14.2z M12.7,7.5c-0.2,2.7-2.7,4.8-5.4,4.5
					c-2.8-0.2-4.8-2.7-4.5-5.4C3,3.9,5.4,1.9,8.2,2.1C10.9,2.3,13,4.8,12.7,7.5z M8.1,3C8,3,7.9,3,7.8,3C6.9,3,6,3.3,5.3,3.8
					C5.1,3.9,5.1,4.2,5.3,4.4c0.1,0.2,0.4,0.2,0.6,0.1C6.4,4,7,3.8,7.8,3.8c0.1,0,0.2,0,0.3,0c0.9,0.1,1.6,0.5,2.1,1.1
					c0.2,0.2,0.5,0.1,0.6,0c0.2-0.1,0.2-0.4,0-0.6C10.1,3.6,9.2,3.1,8.1,3z"/>
			</g>
			<path display="inline" fill="#9BA4AB" d="M14.9,18c-0.1,0-0.1,0-0.2,0c-0.7-0.1-1.3-0.4-1.7-0.9L10,13.8
				c-0.9,0.3-1.9,0.4-2.9,0.4c-1.9-0.2-3.6-1.1-4.8-2.5c-1.2-1.5-1.8-3.3-1.6-5.2C1,2.6,4.5-0.3,8.4,0c1.9,0.2,3.6,1.1,4.8,2.5
				C14.4,4,15,5.8,14.8,7.7c-0.1,1-0.4,2-0.9,2.9l2.9,3.3c0.4,0.5,0.6,1.1,0.6,1.8c-0.1,0.7-0.4,1.3-0.9,1.7
				C16,17.8,15.5,18,14.9,18z M10.3,12.9l3.3,3.7c0.3,0.4,0.7,0.6,1.2,0.6c0.4,0,0.9-0.1,1.2-0.4c0.3-0.3,0.6-0.7,0.6-1.2
				c0-0.4-0.1-0.9-0.4-1.2l-3.3-3.7l0.2-0.2c0.6-0.9,0.9-1.8,1-2.8C14.2,6,13.7,4.3,12.6,3C11.5,1.7,10,1,8.3,0.8
				C4.9,0.5,1.8,3.1,1.5,6.5c-0.1,1.7,0.4,3.3,1.5,4.6c1.1,1.3,2.6,2.1,4.3,2.2c1,0.1,1.9-0.1,2.8-0.4L10.3,12.9z"/>
		</g>
	</g>
</g>
<g id="_x32_0x20_editing_-_SOCOM">
	<g id="button_4_">
	</g>
	<g id="drop_audio_1_" display="none">
	</g>
	<g id="edit_media">
	</g>
	<g id="edit_text" display="none">
	</g>
	<g id="help" display="none">
	</g>
</g>
<g id="_x33_5x40_tabs_-_SOCOM">
	<g id="button_3_">
	</g>
	<g id="documents" display="none">
	</g>
	<g id="resources" display="none">
	</g>
	<g id="help_2_" display="none">
	</g>
	<g id="glossary_1_" display="none">
	</g>
	<g id="index_2_1_" display="none">
	</g>
</g>
<g id="_x33_5x40_tabs_-_Air_Force">
</g>
<g id="_x33_0x30_admin_-_Cognizen">
	<g id="media_plyr-delete" display="none">
	</g>
	<g id="media_plyr-select" display="none">
	</g>
	<g id="media_plyr-download" display="none">
	</g>
	<g id="add_page">
	</g>
	<g id="comment" display="none">
	</g>
	<g id="preferences" display="none">
	</g>
	<g id="edit_control" display="none">
	</g>
	<g id="upload" display="none">
	</g>
</g>
<g id="global">
</g>
<g id="guides">
</g>
</svg>
